<?xml version="1.0" encoding="UTF-8"?>
<svg width="54px" height="54px" viewBox="0 0 54 54" version="1.1" xmlns="http://www.w3.org/2000/svg" xmlns:xlink="http://www.w3.org/1999/xlink">
    <title>514467A5-A090-467C-A033-BC989B8BF4E5@1.00x</title>
    <g id="06_External-Pages" stroke="none" stroke-width="1" fill="none" fill-rule="evenodd">
        <g id="06.1_Freelancers-Site" transform="translate(-821.000000, -1793.000000)">
            <g id="Case-study" transform="translate(209.000000, 1659.000000)">
                <g id="double-quotes-r" transform="translate(639.000000, 161.000000) scale(-1, -1) translate(-639.000000, -161.000000) translate(612.000000, 134.000000)">
                    <polygon id="Path" points="0 0 54 0 54 54 0 54"></polygon>
                    <path d="M43.68825,15.02775 C46.00575,17.48925 47.25,20.25 47.25,24.72525 C47.25,32.60025 41.72175,39.6585 33.6825,43.14825 L31.67325,40.04775 C39.177,35.98875 40.644,30.7215 41.229,27.4005 C40.02075,28.026 38.439,28.24425 36.88875,28.10025 C32.82975,27.7245 29.63025,24.39225 29.63025,20.25 C29.63025,15.9007576 33.1560076,12.375 37.50525,12.375 C39.9195,12.375 42.228,13.4775 43.68825,15.02775 Z M21.18825,15.02775 C23.50575,17.48925 24.75,20.25 24.75,24.72525 C24.75,32.60025 19.22175,39.6585 11.1825,43.14825 L9.17325,40.04775 C16.677,35.98875 18.144,30.7215 18.729,27.4005 C17.52075,28.026 15.939,28.24425 14.38875,28.10025 C10.32975,27.7245 7.1325,24.39225 7.1325,20.25 C7.1325,15.9007576 10.6582576,12.375 15.0075,12.375 C17.42175,12.375 19.73025,13.4775 21.1905,15.02775 L21.18825,15.02775 Z" id="Shape" fill="#4DD09A" fill-rule="nonzero"></path>
                </g>
            </g>
        </g>
    </g>
</svg>