<?xml version="1.0" encoding="UTF-8"?>
<svg width="60px" height="62px" viewBox="0 0 60 62" version="1.1" xmlns="http://www.w3.org/2000/svg" xmlns:xlink="http://www.w3.org/1999/xlink">
    <title>A967EEE0-D044-4D33-9D07-291D4EC44223@1.00x</title>
    <g id="06_External-Pages" stroke="none" stroke-width="1" fill="none" fill-rule="evenodd">
        <g id="06.1_Freelancers-Site" transform="translate(-242.000000, -2625.000000)" fill-rule="nonzero">
            <g id="Your-Talent" transform="translate(242.000000, 2176.000000)">
                <g id="01" transform="translate(0.000000, 449.310398)">
                    <g id="Icons_get-paid-securely" transform="translate(0.000000, 0.689602)">
                        <path d="M6.8328,28.044 C3.10188373,28.0400316 0.0783683596,25.0165163 0.0744,21.2856 L0.0744,6.9744 C0.0783683596,3.24348373 3.10188373,0.21996836 6.8328,0.216 L21.144,0.216 C24.8749163,0.21996836 27.8984316,3.24348373 27.9024,6.9744 L27.9024,21.2856 C27.8984316,25.0165163 24.8749163,28.0400316 21.144,28.044 L6.8328,28.044 Z M6.8328,3.108 C4.69854267,3.11064468 2.96904468,4.84014267 2.9664,6.9744 L2.9664,21.2856 C2.9677221,23.4207945 4.6976067,25.1517529 6.8328,25.1544 L21.144,25.1544 C23.2795828,25.1517553 25.0101553,23.4211828 25.0128,21.2856 L25.0128,6.9744 C25.0035545,4.84389508 23.2745246,3.12130079 21.144,3.12 L6.8328,3.108 Z" id="Shape" fill="#0A2448"></path>
                        <path d="M6.8328,59.784 C3.10188373,59.7800316 0.0783683596,56.7565163 0.0744,53.0256 L0.0744,38.7144 C0.0783683596,34.9834837 3.10188373,31.9599684 6.8328,31.956 L21.144,31.956 C24.8749163,31.9599684 27.8984316,34.9834837 27.9024,38.7144 L27.9024,53.0256 C27.8984316,56.7565163 24.8749163,59.7800316 21.144,59.784 L6.8328,59.784 Z M6.8328,34.8456 C4.6976067,34.8482471 2.9677221,36.5792055 2.9664,38.7144 L2.9664,53.0256 C2.96904468,55.1598573 4.69854267,56.8893553 6.8328,56.892 L21.144,56.892 C23.2791945,56.8906779 25.0101529,55.1607933 25.0128,53.0256 L25.0128,38.7144 C25.0101553,36.5788172 23.2795828,34.8482447 21.144,34.8456 L6.8328,34.8456 Z" id="Shape" fill="#0A2448"></path>
                        <path d="M38.856,59.784 C35.1250837,59.7800316 32.1015684,56.7565163 32.0976,53.0256 L32.0976,7.2744 C32.1015684,3.54348373 35.1250837,0.51996836 38.856,0.516 L53.1672,0.516 C56.8981163,0.51996836 59.9216316,3.54348373 59.9256,7.2744 L59.9256,53.0256 C59.9216316,56.7565163 56.8981163,59.7800316 53.1672,59.784 L38.856,59.784 Z" id="Path" fill="#0A2448"></path>
                        <rect id="Rectangle" fill="#6AE4B0" x="34.9872" y="3.4056" width="22.0464" height="53.4864" rx="4"></rect>
                        <path d="M49.8504,25.7568 L42.1704,25.7568 C41.3353455,25.7568 40.6584,26.4337455 40.6584,27.2688 C40.6584,28.1038545 41.3353455,28.7808 42.1704,28.7808 L49.8504,28.7808 C50.6854545,28.7808 51.3624,28.1038545 51.3624,27.2688 C51.3624,26.4337455 50.6854545,25.7568 49.8504,25.7568 L49.8504,25.7568 Z" id="Path" fill="#0A2448"></path>
                        <path d="M49.8504,31.5168 L42.1704,31.5168 C41.3353455,31.5168 40.6584,32.1937455 40.6584,33.0288 C40.6584,33.8638545 41.3353455,34.5408 42.1704,34.5408 L49.8504,34.5408 C50.6854545,34.5408 51.3624,33.8638545 51.3624,33.0288 C51.3624,32.1937455 50.6854545,31.5168 49.8504,31.5168 Z" id="Path" fill="#0A2448"></path>
                        <path d="M17.8296,44.3568 L10.1496,44.3568 C9.31454546,44.3568 8.6376,45.0337455 8.6376,45.8688 C8.6376,46.7038545 9.31454546,47.3808 10.1496,47.3808 L17.8296,47.3808 C18.6646545,47.3808 19.3416,46.7038545 19.3416,45.8688 C19.3416,45.0337455 18.6646545,44.3568 17.8296,44.3568 Z" id="Path" fill="#0A2448"></path>
                        <path d="M15.5016,17.9712 L15.5016,10.2912 C15.5016,9.45614549 14.8246545,8.77920009 13.9896,8.77920009 C13.1545455,8.77920009 12.4776,9.45614549 12.4776,10.2912 L12.4776,17.9712 C12.4776,18.8062545 13.1545455,19.4831999 13.9896,19.4831999 C14.8246545,19.4831999 15.5016,18.8062545 15.5016,17.9712 L15.5016,17.9712 Z" id="Path" fill="#0A2448"></path>
                        <path d="M17.8296,12.6192 L10.1496,12.6192 C9.31454546,12.6192 8.6376,13.2961455 8.6376,14.1312 C8.6376,14.9662545 9.31454546,15.6432 10.1496,15.6432 L17.8296,15.6432 C18.6646545,15.6432 19.3416,14.9662545 19.3416,14.1312 C19.3416,13.2961455 18.6646545,12.6192 17.8296,12.6192 L17.8296,12.6192 Z" id="Path" fill="#0A2448"></path>
                    </g>
                </g>
            </g>
        </g>
    </g>
</svg>