<?xml version="1.0" encoding="UTF-8"?>
<svg width="60px" height="62px" viewBox="0 0 60 62" version="1.1" xmlns="http://www.w3.org/2000/svg" xmlns:xlink="http://www.w3.org/1999/xlink">
    <title>972E8AFA-1C3B-4690-88F2-3D4F79D99872@1.00x</title>
    <g id="06_External-Pages" stroke="none" stroke-width="1" fill="none" fill-rule="evenodd">
        <g id="06.1_Freelancers-Site" transform="translate(-1029.000000, -2347.000000)" fill-rule="nonzero">
            <g id="Your-Talent" transform="translate(242.000000, 2176.000000)">
                <g id="03" transform="translate(768.000000, 129.801223)">
                    <g id="Icons_Expande-your-clients-base" transform="translate(19.000000, 42.198777)">
                        <path d="M20.441129,39.3943548 C20.441129,39.3943548 19.9572581,35.0395161 23.1024194,34.7975806 C26.2475806,34.5556452 27.2153226,35.0395161 29.6346774,35.2814516 C32.0540323,35.5233871 34.4733871,33.3459677 34.4733871,33.3459677 L36.8927419,34.7975806 L40.2798387,38.9104839 L37.1346774,42.5395161 L29.8766129,44.475 L25.7637097,43.7491935 L20.441129,39.3943548 Z" id="Path" fill="#6AE4B0"></path>
                        <path d="M30,14.3709677 C21.3683238,14.3709677 14.3709677,21.3683238 14.3709677,30 C14.3709677,38.6316762 21.3683238,45.6290323 30,45.6290323 C38.6316762,45.6290323 45.6290323,38.6316762 45.6290323,30 C45.6196984,21.372193 38.627807,14.3803016 30,14.3709677 Z M37.9669355,40.2217742 C33.2855745,43.8800458 26.7144255,43.8800458 22.0330645,40.2217742 L22.0330645,38.3830645 C22.0328828,37.0688571 22.9694011,35.941171 24.2612903,35.7 L25.916129,35.3903226 C28.2124596,37.5448529 31.7875404,37.5448529 34.083871,35.3903226 L35.7387097,35.7 C37.0305989,35.941171 37.9671172,37.0688571 37.9669355,38.3830645 L37.9669355,40.2217742 Z M26.6830645,31.0282258 L26.6830645,29.1677419 C26.6830645,27.3358491 28.1681071,25.8508065 30,25.8508065 C31.8318929,25.8508065 33.3169355,27.3358491 33.3169355,29.1677419 L33.3169355,31.0282258 C33.3169355,32.8601187 31.8318929,34.3451613 30,34.3451613 C28.1681071,34.3451613 26.6830645,32.8601187 26.6830645,31.0282258 L26.6830645,31.0282258 Z M40.5604839,37.5169355 C40.1918755,35.274862 38.4603479,33.502729 36.2274194,33.0822581 L35.6540323,32.9758065 C35.8711742,32.3494775 35.9815808,31.6911268 35.9806452,31.0282258 L35.9806452,29.1677419 C35.9806452,25.8647228 33.3030191,23.1870968 30,23.1870968 C26.6969809,23.1870968 24.0193548,25.8647228 24.0193548,29.1677419 L24.0193548,31.0282258 C24.0184192,31.6911268 24.1288258,32.3494775 24.3459677,32.9758065 L23.7725806,33.0822581 C21.5396521,33.502729 19.8081245,35.274862 19.4395161,37.5169355 C17.8675546,35.3264345 17.0260702,32.6961609 17.034612,30 C17.034612,22.8394501 22.8394501,17.0346774 30,17.0346774 C37.1605499,17.0346774 42.9653805,22.8394501 42.9653805,30 C42.9734208,32.6953351 42.1319609,35.3246858 40.5604839,37.5145161 L40.5604839,37.5169355 Z" id="Shape" fill="#0A2448"></path>
                        <path d="M46.4854839,52.0330553 C46.2109073,52.0320415 45.9428359,52.1166066 45.7185484,52.275 C38.4772797,57.3792401 29.2099427,58.653668 20.8596774,55.6935484 C20.1689961,55.4512812 19.412324,55.8123218 19.166129,56.5016129 C19.0468565,56.8343635 19.0651414,57.2009318 19.2169355,57.5201613 C19.3674724,57.8400597 19.6403834,58.0859412 19.9741935,58.2024194 C29.1397626,61.4545976 39.3135827,60.0564753 47.2620968,54.4524194 C47.7375724,54.1182956 47.9412224,53.5142615 47.7651122,52.9604556 C47.5890019,52.4066497 47.0738721,52.0311877 46.4927419,52.0330553 L46.4854839,52.0330553 Z" id="Path" fill="#0A2448"></path>
                        <path d="M13.1685484,8.22587759 C13.4504586,8.22587759 13.7250393,8.13600308 13.9524194,7.96935484 C21.5581585,2.43587096 31.4770364,1.20812415 40.2024194,4.72016129 C40.3609497,4.78359197 40.5300579,4.81642852 40.7008065,4.81693548 C41.3402735,4.8199551 41.89146,4.36767395 42.013342,3.73992246 C42.135224,3.11217096 41.7933303,2.48649251 41.1991935,2.25 C31.6223586,-1.60858691 20.7336052,-0.264747817 12.3822581,5.80645161 C11.9075264,6.14406378 11.7069943,6.75082928 11.8870491,7.30484411 C12.067104,7.85885893 12.5860398,8.23179739 13.1685484,8.22587759 L13.1685484,8.22587759 Z" id="Path" fill="#0A2448"></path>
                        <path d="M54.0895161,12.2443548 C55.2201986,10.4747373 55.0078611,8.16384451 53.5736298,6.62990529 C52.1393986,5.09596608 49.8479651,4.72902547 48.0064579,5.7384016 C46.1649507,6.74777772 45.2416222,8.87680975 45.7631772,10.9110096 C46.2847322,12.9452095 48.1185514,14.3673277 50.2185484,14.366129 C50.8524739,14.3687333 51.4798265,14.237657 52.0596774,13.9814516 C57.5881183,21.6013114 58.8005303,31.5319355 55.2677419,40.2580645 C55.0233594,40.9314709 55.3548976,41.6776187 56.018457,41.9475963 C56.6820164,42.2175739 57.4403069,41.9148368 57.7354839,41.2620968 C61.644123,31.6129879 60.2637247,20.6265927 54.0895161,12.2443548 L54.0895161,12.2443548 Z M51.5806452,11.1290323 C50.929662,11.7853728 49.9054105,11.8897421 49.1354219,11.3781959 C48.3654333,10.8666497 48.0646756,9.88200305 48.4174149,9.02752254 C48.7701541,8.17304203 49.6779116,7.68728423 50.5845286,7.86785989 C51.4911456,8.04843555 52.1435099,8.84493099 52.141944,9.76935484 C52.1434528,10.2792588 51.9414127,10.7686836 51.5806452,11.1290323 L51.5806452,11.1290323 Z" id="Shape" fill="#0A2448"></path>
                        <path d="M30,55.6451913 C32.3052498,55.6534247 34.2601023,53.9529348 34.5712013,51.6687583 C34.8823002,49.3845817 33.4534198,47.2232362 31.2299261,46.6146964 C29.0064323,46.0061565 26.6760733,47.1386496 25.7806452,49.2629032 C20.0530621,47.9791909 15.1838389,44.2334302 12.4741935,39.0266129 C12.1255939,38.3945711 11.3372665,38.154795 10.6957805,38.4856942 C10.0542946,38.8165935 9.79270187,39.5979526 10.1056452,40.2483871 C13.2279396,46.2497566 18.8768008,50.5347935 25.4975806,51.9241935 C25.9065521,54.0868928 27.798979,55.6508653 30,55.6451913 L30,55.6451913 Z M30,49.1370968 C31.0622574,49.1370968 31.9233871,49.9982265 31.9233871,51.0604839 C31.9233871,52.1227412 31.0622574,52.983871 30,52.983871 C28.9377426,52.983871 28.0766129,52.1227412 28.0766129,51.0604839 C28.0779213,49.9971957 28.9367318,49.1340641 30,49.1274194 L30,49.1370968 Z" id="Shape" fill="#0A2448"></path>
                        <path d="M9.77903226,46.5653226 C9.34905937,46.5649099 8.92237618,46.6402551 8.51854839,46.7879032 C2.9313967,39.6312844 1.26661039,30.1657592 4.0766129,21.5322581 C4.24227948,21.0749583 4.1457353,20.5637274 3.82470679,20.1983383 C3.50367828,19.8329493 3.00912664,19.6714052 2.53430712,19.7768324 C2.05948761,19.8822597 1.67977474,20.2379224 1.54354839,20.7048387 C0.566252132,23.7063004 0.0697969667,26.8434398 0.0725806452,30 C0.050808537,36.7411854 2.32954663,43.2880768 6.53225806,48.558871 C5.82049285,49.9716337 6.09129795,51.6812127 7.20483871,52.8048387 C8.3746306,53.9755901 10.1850485,54.2143873 11.618399,53.3869949 C13.0517495,52.5596025 13.7504239,50.8724477 13.3216751,49.2739339 C12.8929263,47.6754201 11.4437236,46.5643628 9.78870968,46.5653226 L9.77903226,46.5653226 Z M10.4830645,50.9201613 C10.1473294,51.2574494 9.61999057,51.3103572 9.22394157,51.0464889 C8.82789257,50.7826205 8.6736166,50.2755855 8.85557803,49.8358454 C9.03753946,49.3961053 9.50497771,49.1463314 9.97167674,49.2394622 C10.4383758,49.332593 10.7741436,49.7426484 10.7733884,50.2185484 C10.7736083,50.4824014 10.6692056,50.7355781 10.4830645,50.9225806 L10.4830645,50.9201613 Z" id="Shape" fill="#0A2448"></path>
                        <path d="M50.9951613,31.9354839 C50.9270285,31.9259195 50.8583169,31.9209489 50.7895161,31.9209489 C50.1320663,31.917486 49.5721282,32.3980222 49.4758065,33.0483871 C48.5130431,39.1163001 44.7899869,44.3943534 39.3967742,47.3370968 C38.9788599,47.5644214 38.7139674,47.9974327 38.7018791,48.4730194 C38.6897909,48.9486061 38.9323434,49.3945154 39.3381694,49.6427775 C39.7439955,49.8910396 40.2514405,49.9039376 40.6693548,49.6766129 C46.7977761,46.348721 51.0264948,40.3562474 52.1080645,33.4669355 C52.1622959,33.1175538 52.0755089,32.7609389 51.866797,32.4755481 C51.6580851,32.1901573 51.3445464,31.9993703 50.9951613,31.9451613 L50.9951613,31.9354839 Z" id="Path" fill="#0A2448"></path>
                        <path d="M9.00483871,28.0645161 C9.07297147,28.0740805 9.14168314,28.0790511 9.21048387,28.0790511 C9.86793374,28.082514 10.4278718,27.6019778 10.5241935,26.9516129 C11.4862514,20.9143148 15.1780716,15.6577554 20.5306452,12.7040323 C21.065709,12.4126033 21.3344853,11.7949976 21.1830861,11.2048305 C21.0316868,10.6146547 20.498794,10.2027047 19.8895161,10.2048305 C19.6654787,10.2057268 19.4451711,10.2622585 19.2483871,10.3693548 C13.1600427,13.7093049 8.96520724,19.6843092 7.89193548,26.5451613 C7.78186733,27.2715077 8.27912219,27.9503687 9.00483871,28.0645161 L9.00483871,28.0645161 Z" id="Path" fill="#0A2448"></path>
                        <path d="M48.1572581,20.6951682 C48.6353079,20.6967042 49.0773084,20.4412305 49.3145966,20.0262265 C49.5518848,19.6112225 49.5478501,19.1007178 49.3040323,18.6895161 C45.9256959,12.8972208 40.1187165,8.93407958 33.4935484,7.89919355 C32.977091,6.2182985 31.3377254,5.14270477 29.5901766,5.33817713 C27.8426277,5.53364949 26.4814254,6.94487223 26.3491187,8.69833489 C26.2168119,10.4517976 27.3508416,12.0512969 29.0492726,12.5067841 C30.7477036,12.9622713 32.5299057,12.1448504 33.2927419,10.5604839 C39.0436517,11.5241456 44.0688937,14.9936813 47.0080645,20.0298387 C47.2459161,20.4398365 47.6832675,20.6930399 48.1572581,20.6951682 L48.1572581,20.6951682 Z M30,9.9725836 C29.5973824,9.97355906 29.2339099,9.73165163 29.0793825,9.35986783 C28.9248551,8.98808402 29.009774,8.5598082 29.2944685,8.27511369 C29.579163,7.99041919 30.0074389,7.90550029 30.3792227,8.0600277 C30.7510065,8.21455511 30.9929139,8.57802752 30.9919384,8.98064516 C30.9906055,9.52792416 30.547279,9.97125068 30,9.9725836 Z" id="Shape" fill="#0A2448"></path>
                        <path d="M9.77903226,11.1121001 C10.4150833,11.113519 10.9635407,10.6653856 11.0889213,10.0418131 C11.2143018,9.41824053 10.8816758,8.79294938 10.2945056,8.54842092 C9.70733538,8.30389247 9.02920027,8.50824967 8.67490539,9.03649027 C8.32061051,9.56473086 8.38885856,10.2696928 8.83790323,10.7201613 C9.08729228,10.9703411 9.42578416,11.1113069 9.77903226,11.1121001 Z" id="Path" fill="#0A2448"></path>
                        <path d="M50.2209677,48.8878999 C49.5849167,48.886481 49.0364593,49.3346144 48.9110787,49.9581869 C48.7856982,50.5817595 49.1183242,51.2070506 49.7054944,51.4515791 C50.2926646,51.6961075 50.9707997,51.4917503 51.3250946,50.9635097 C51.6793895,50.4352691 51.6111414,49.7303072 51.1620968,49.2798387 C50.9127077,49.0296589 50.5742158,48.8886931 50.2209677,48.8878999 Z" id="Path" fill="#0A2448"></path>
                    </g>
                </g>
            </g>
        </g>
    </g>
</svg>