<?xml version="1.0" encoding="UTF-8"?>
<svg width="60px" height="62px" viewBox="0 0 60 62" version="1.1" xmlns="http://www.w3.org/2000/svg" xmlns:xlink="http://www.w3.org/1999/xlink">
    <title>1DD4069B-166B-4207-A62E-449D0FA52CD9@1.00x</title>
    <g id="06_External-Pages" stroke="none" stroke-width="1" fill="none" fill-rule="evenodd">
        <g id="06.1_Freelancers-Site" transform="translate(-635.000000, -2347.000000)" fill-rule="nonzero">
            <g id="Your-Talent" transform="translate(242.000000, 2176.000000)">
                <g id="02" transform="translate(368.000000, 129.801223)">
                    <g id="Icons_Enjoy-th-flixibility" transform="translate(25.000000, 42.198777)">
                        <path d="M30,59.78411 C15.7894616,59.7849212 3.55725015,49.7473373 0.784272792,35.8099775 C-1.98870456,21.8726176 5.46988889,7.91735086 18.5985685,2.47886077 C31.7272482,-2.95962931 46.8693806,1.63339943 54.7644255,13.4489683 C62.6594705,25.2645372 61.10848,41.0117438 51.06,51.06 C45.486961,56.6640996 37.9034317,59.8055388 30,59.78411 Z M30,3.096 C15.1413311,3.096 3.096,15.1413311 3.096,30 C3.096,44.8586689 15.1413311,56.904 30,56.904 C44.8586689,56.904 56.904,44.8586689 56.904,30 C56.8868069,15.1484585 44.8515415,3.11319313 30,3.096 Z" id="Shape" fill="#0A2448"></path>
                        <path d="M30,53.7864 C16.863134,53.7864 6.2136,43.136866 6.2136,30 C6.2136,16.863134 16.863134,6.2136 30,6.2136 C43.136866,6.2136 53.7864,16.863134 53.7864,30 C53.7718506,43.1308347 43.1308347,53.7718506 30,53.7864 Z M30,9.0936 C18.4537141,9.0936 9.0936,18.4537141 9.0936,30 C9.0936,41.5462859 18.4537141,50.9064 30,50.9064 C41.5462859,50.9064 50.9064,41.5462859 50.9064,30 C50.8931742,18.4591968 41.5408032,9.10682578 30,9.0936 L30,9.0936 Z" id="Shape" fill="#0A2448"></path>
                        <path d="M30,16.3872 C29.20471,16.3872 28.56,15.74249 28.56,14.9472 L28.56,11.76 C28.56,10.96471 29.20471,10.32 30,10.32 C30.79529,10.32 31.44,10.96471 31.44,11.76 L31.44,14.9352 C31.4432,15.3191867 31.2929,15.6885467 31.0225,15.9612 C30.7521,16.2338533 30.384,16.3872 30,16.3872 L30,16.3872 Z" id="Path" fill="#0A2448"></path>
                        <path d="M29.952,30.8352 C29.6315298,31.0430847 29.2415919,31.1151188 28.8680013,31.0354495 C28.4944106,30.9557802 28.1677828,30.7309363 27.96,30.4104 L25.32,26.3304 C25.0314534,25.8990454 24.9973326,25.3457965 25.2306878,24.8822544 C25.464043,24.4187123 25.9287713,24.1165928 26.4471279,24.0914474 C26.9654846,24.0663021 27.4572734,24.3220212 27.7344,24.7608 L30.3744,28.8408 C30.5832705,29.1611698 30.6561187,29.5514689 30.5768774,29.925614 C30.4976361,30.299759 30.272815,30.6270139 29.952,30.8352 L29.952,30.8352 Z" id="Path" fill="#0A2448"></path>
                        <path d="M11.76,31.44 C10.96471,31.44 10.32,30.79529 10.32,30 C10.32,29.20471 10.96471,28.56 11.76,28.56 L14.9352,28.56 C15.73049,28.56 16.3752,29.20471 16.3752,30 C16.3752,30.79529 15.73049,31.44 14.9352,31.44 L11.76,31.44 Z" id="Path" fill="#0A2448"></path>
                        <path d="M30,49.68 C29.20471,49.68 28.56,49.03529 28.56,48.24 L28.56,45.0552 C28.56,44.25991 29.20471,43.6152 30,43.6152 C30.79529,43.6152 31.44,44.25991 31.44,45.0552 L31.44,48.24 C31.44,49.03529 30.79529,49.68 30,49.68 Z" id="Path" fill="#0A2448"></path>
                        <path d="M45.0552,31.44 C44.25991,31.44 43.6152,30.79529 43.6152,30 C43.6152,29.20471 44.25991,28.56 45.0552,28.56 L48.24,28.56 C49.03529,28.56 49.68,29.20471 49.68,30 C49.68,30.79529 49.03529,31.44 48.24,31.44 L45.0552,31.44 Z" id="Path" fill="#0A2448"></path>
                        <path d="M29.52,31.44 C28.72471,31.44 28.08,30.79529 28.08,30 C28.08,29.20471 28.72471,28.56 29.52,28.56 L38.2152,28.56 C39.01049,28.56 39.6552,29.20471 39.6552,30 C39.6552,30.79529 39.01049,31.44 38.2152,31.44 L29.52,31.44 Z" id="Path" fill="#0A2448"></path>
                        <path d="M30,3.096 C15.1413311,3.096 3.096,15.1413311 3.096,30 C3.096,44.8586689 15.1413311,56.904 30,56.904 C44.8586689,56.904 56.904,44.8586689 56.904,30 C56.8868069,15.1484585 44.8515415,3.11319313 30,3.096 Z M30,53.28 C20.5841189,53.28 12.0953862,47.6080101 8.49208448,38.9088703 C4.8887828,30.2097305 6.88052079,20.1965875 13.5385541,13.5385541 C20.1965875,6.88052079 30.2097305,4.8887828 38.9088703,8.49208448 C47.6080101,12.0953862 53.28,20.5841189 53.28,30 C53.2667713,42.8517055 42.8517055,53.2667713 30,53.28 Z" id="Shape" fill="#6AE4B0"></path>
                    </g>
                </g>
            </g>
        </g>
    </g>
</svg>