<?xml version="1.0" encoding="UTF-8"?>
<svg width="60px" height="61px" viewBox="0 0 60 61" version="1.1" xmlns="http://www.w3.org/2000/svg" xmlns:xlink="http://www.w3.org/1999/xlink">
    <title>70FB9B36-0520-4051-A10A-E1B1F1AF6FDF@1.00x</title>
    <g id="06_External-Pages" stroke="none" stroke-width="1" fill="none" fill-rule="evenodd">
        <g id="06.1_Freelancers-Site" transform="translate(-1029.000000, -2626.000000)">
            <g id="Your-Talent" transform="translate(242.000000, 2176.000000)">
                <g id="03" transform="translate(768.000000, 407.376147)">
                    <g id="Icons_learning-curev" transform="translate(19.000000, 43.623853)">
                        <path d="M44.3904762,45.8904762 L44.3904762,42.7690476 C44.3896777,40.9733147 43.676371,39.2512741 42.4071429,37.9809524 L37.6190476,33.1928571 L37.6190476,25.8642857 C37.6193386,22.4202943 36.5694799,19.0580889 34.6095238,16.2261905 L30,9.55952381 L25.3904762,16.2261905 C23.4305201,19.0580889 22.3806614,22.4202943 22.3809524,25.8642857 L22.3809524,33.1928571 L17.5928571,37.9809524 C16.323629,39.2512741 15.6103223,40.9733147 15.6095238,42.7690476 L15.6095238,45.8904762 L44.3904762,45.8904762 Z" id="Path" fill="#6AE4B0" fill-rule="nonzero"></path>
                        <path d="M37.6190476,51.7119049 C36.7419668,51.7119049 36.0309524,51.0008903 36.0309524,50.1238095 L36.0309524,47.4785714 L23.9690476,47.4785714 L23.9690476,50.1238095 C23.9690477,50.6911813 23.6663584,51.2154545 23.175,51.4991404 C22.6836416,51.7828263 22.0782631,51.7828263 21.5869047,51.4991404 C21.0955463,51.2154545 20.7928571,50.6911813 20.7928571,50.1238095 L20.7928571,47.4785714 L15.6095238,47.4785714 C14.733372,47.4785724 14.0227421,46.769008 14.0213956,45.8928571 L14.0213956,42.7738095 C14.0151843,40.5542408 14.8974405,38.4244794 16.4714286,36.8595238 L20.7928571,32.5333333 L20.7928571,25.8666667 C20.7872102,22.0984412 21.9364185,18.4189804 24.0857143,15.3238095 L28.6928571,8.67142857 C29.012931,8.27656774 29.4940874,8.04721325 30.002381,8.04721325 C30.5106745,8.04721325 30.9918309,8.27656774 31.3119048,8.67142857 L35.9214286,15.3380952 C38.0723072,18.430839 39.2224769,22.109055 39.2166667,25.8761905 L39.2166667,32.5428571 L43.5380952,36.8642857 C45.1119455,38.4283586 45.9942344,40.5573414 45.9881271,42.7761905 L45.9881271,45.8952381 C45.9881271,46.7727049 45.2774658,47.4844007 44.4,47.4857143 L39.2071429,47.4857143 L39.2071429,50.1309524 C39.2032105,51.0052424 38.4933465,51.7119049 37.6190476,51.7119049 Z M26.697619,17.1428571 C24.9149516,19.7057297 23.9624799,22.7543039 23.9690476,25.8761905 L23.9690476,33.2047619 C23.9687622,33.6245788 23.80176,34.0270969 23.5047619,34.3238095 L18.7142857,39.102381 C17.7392474,40.0750869 17.192495,41.3965481 17.1952278,42.7738095 L17.1952278,44.3047619 L42.8047795,44.3047619 L42.8047795,42.7738095 C42.808352,41.397779 42.2613729,40.0774846 41.2857143,39.1071429 L36.497619,34.3142857 C36.1972097,34.0179022 36.026057,33.6148377 36.0214286,33.1928571 L36.0214286,25.8642857 C36.0284844,22.7415872 35.0759904,19.6921103 33.2928571,17.1285714 L29.9904762,12.3666667 L26.697619,17.1428571 Z" id="Shape" fill="#0A2448" fill-rule="nonzero"></path>
                        <path d="M57.0714286,55.5714286 L1.5,55.5714286 C0.671572875,55.5714286 0,56.2430014 0,57.0714286 C0,57.8998557 0.671572875,58.5714286 1.5,58.5714286 L57.0714286,58.5714286 C57.8998557,58.5714286 58.5714286,57.8998557 58.5714286,57.0714286 C58.5714286,56.2430014 57.8998557,55.5714286 57.0714286,55.5714286 Z" id="Path" fill="#0A2448" fill-rule="nonzero"></path>
                        <rect id="Rectangle" x="0" y="0" width="58.5714286" height="58.5714286"></rect>
                        <path d="M57.0714286,-3.38353684e-15 L32.547619,-3.38353684e-15 C31.7191919,-3.38353684e-15 31.047619,0.671572875 31.047619,1.5 C31.047619,2.32842712 31.7191919,3 32.547619,3 L57.0714286,3 C57.8998557,3 58.5714286,2.32842712 58.5714286,1.5 C58.5714286,0.671572875 57.8998557,-3.38353684e-15 57.0714286,-3.38353684e-15 L57.0714286,-3.38353684e-15 Z" id="Path" fill="#0A2448" fill-rule="nonzero"></path>
                        <path d="M58.5,55.5714286 L2.92857143,55.5714286 C2.1001443,55.5714286 1.42857143,56.2430014 1.42857143,57.0714286 C1.42857143,57.8998557 2.1001443,58.5714286 2.92857143,58.5714286 L58.5,58.5714286 C59.3284271,58.5714286 60,57.8998557 60,57.0714286 C60,56.2430014 59.3284271,55.5714286 58.5,55.5714286 Z" id="Path" fill="#0A2448" fill-rule="nonzero"></path>
                        <rect id="Rectangle" x="1.42857143" y="0" width="58.5714286" height="58.5714286"></rect>
                    </g>
                </g>
            </g>
        </g>
    </g>
</svg>