<?xml version="1.0" encoding="UTF-8"?>
<svg width="60px" height="63px" viewBox="0 0 60 63" version="1.1" xmlns="http://www.w3.org/2000/svg" xmlns:xlink="http://www.w3.org/1999/xlink">
    <title>79D0C96D-7C04-4863-BFC7-3F91312D6203@1.00x</title>
    <g id="06_External-Pages" stroke="none" stroke-width="1" fill="none" fill-rule="evenodd">
        <g id="06.1_Freelancers-Site" transform="translate(-242.000000, -2347.000000)" fill-rule="nonzero">
            <g id="Your-Talent" transform="translate(242.000000, 2176.000000)">
                <g id="01" transform="translate(0.000000, 171.750765)">
                    <g id="Icons_--everlasting-online" transform="translate(0.000000, 0.249235)">
                        <path d="M30.6487805,39.2341463 C30.6487805,39.2341463 34.5512195,36.5512195 35.5268293,36.5512195 C36.502439,36.5512195 38.697561,36.795122 40.404878,37.7707317 C42.5378278,39.0597509 43.835008,41.376144 43.8196495,43.8682927 C43.8196495,46.795122 42.3560976,48.502439 40.404878,48.502439 L16.0146341,48.502439 C16.0146341,48.502439 15.2829268,46.0634146 15.2829268,44.8439024 C15.2829268,43.6243902 15.7707317,38.9902439 16.7463415,38.502439 C17.7219512,38.0146341 20.8926829,36.795122 22.3560976,36.795122 C23.8195122,36.795122 25.2829268,38.0146341 26.0146341,38.0146341 C26.7463415,38.0146341 28.9414634,38.7463415 29.6731707,38.7463415 C30.0636747,38.7154237 30.4392123,38.9031925 30.6487805,39.2341463 Z" id="Path" fill="#6AE4B0"></path>
                        <path d="M44.795122,3.13658537 C44.795122,3.13658537 47.7219512,1.18536585 50.404878,1.67317073 C53.0878049,2.16097561 55.2829268,2.64878049 56.502439,5.33170732 C57.7219512,8.01463415 60.1609756,11.1853659 57.9658537,14.1121951 C55.7707317,17.0390244 50.1609756,21.1853659 46.7463415,19.2341463 C43.3317073,17.2829268 39.9170732,14.1121951 39.9170732,12.404878 C39.9170732,10.697561 41.3804878,4.6 44.795122,3.13658537 Z" id="Path" fill="#6AE4B0"></path>
                        <path d="M60.0000008,10.5170732 C59.9987726,6.18448677 57.3389418,2.29665536 53.3012344,0.725596582 C49.263527,-0.845462191 44.6755085,0.222254676 41.7463415,3.41463415 C37.9304069,1.68806104 33.7883501,0.800596263 29.6,0.812195122 C17.626808,0.812196138 6.83280318,8.02532483 2.25200106,19.087584 C-2.32880107,30.1498432 0.20588526,42.8822872 8.67395475,51.3468679 C17.1420242,59.8114486 29.8755117,62.3408879 40.9358823,57.7555276 C51.9962529,53.1701673 59.2049329,42.373191 59.2,30.4 C59.2115989,26.2116499 58.3241341,22.0695931 56.597561,18.2536585 C58.7666019,16.2661469 60.0011442,13.4590011 60.0000008,10.5170732 Z M49.4829268,2.95609756 C53.6587384,2.95609756 57.0439024,6.34126165 57.0439024,10.5170732 C57.0439024,14.6928847 53.6587384,18.0780488 49.4829268,18.0780488 C45.3071153,18.0780488 41.9219512,14.6928847 41.9219512,10.5170732 C41.9246441,6.34316677 45.3090196,2.96097474 49.4829268,2.96097561 L49.4829268,2.95609756 Z M29.6,57.0390244 C14.8876731,57.0390244 2.96097561,45.1123269 2.96097561,30.4 C2.96097561,15.6876731 14.8876731,3.76085433 29.6,3.76085433 C33.1896858,3.75008316 36.7437195,4.47300782 40.0439024,5.88536585 C38.0602061,9.92233395 38.864768,14.7740745 42.0453468,17.9546532 C45.2259255,21.135232 50.077666,21.9397939 54.1146341,19.9560976 C55.5269922,23.2562805 56.2499168,26.8103142 56.2391457,30.4 C56.2228939,45.1056403 44.3056403,57.0228939 29.6,57.0390244 L29.6,57.0390244 Z" id="Shape" fill="#0A2448"></path>
                        <path d="M53.4146341,9.03658537 L45.5609756,9.03658537 C44.7433248,9.03658537 44.0804879,9.69942237 44.0804879,10.5170732 C44.0804879,11.334724 44.7433248,11.997561 45.5609756,11.997561 L53.4146341,11.997561 C54.2322849,11.997561 54.8951219,11.334724 54.8951219,10.5170732 C54.8951219,9.69942237 54.2322849,9.03658537 53.4146341,9.03658537 L53.4146341,9.03658537 Z" id="Path" fill="#0A2448"></path>
                        <path d="M38.6926829,35.697561 C38.6609756,35.697561 35.2463415,35.8878049 34.0073171,32.0390244 C34.7149538,31.4937831 35.3415396,30.850773 35.8682927,30.1292683 C37.1018028,28.4067447 37.8841518,26.4026565 38.1439024,24.3 C38.2314609,24.1971024 38.3022487,24.0810433 38.3536585,23.9560976 C38.8672602,22.7287159 39.1301415,21.410992 39.1268293,20.0804878 C39.1268293,14.8780488 35.1878049,10.6462832 30.3463415,10.6462832 C29.1029764,10.6416453 27.8749766,10.9211154 26.7560976,11.4634146 C26.3431875,11.5005938 25.9348062,11.5773695 25.5365854,11.6926829 C21.4804878,12.8634146 19.195122,17.7560976 20.4146341,22.595122 C20.5375948,23.0785885 20.6940708,23.5529063 20.8829268,24.0146341 C20.9332012,24.1337683 20.9996825,24.2453912 21.0804878,24.3463415 C21.5439024,27.6414634 23.0853659,30.395122 25.2,32.0121951 C24.1780488,35.8414634 20.5439024,35.6902439 20.5121951,35.6926829 C16.9986454,35.809644 14.2095029,38.6893852 14.204878,42.204878 L14.204878,46.4609756 C14.2062229,48.062044 15.5038097,49.3596307 17.104878,49.3609756 L42.104878,49.3609756 C43.7049938,49.3582869 45.0010966,48.0610931 45.002439,46.4609756 L45.002439,42.2097561 C44.9977695,38.6933482 42.2071907,35.8132379 38.6926829,35.697561 L38.6926829,35.697561 Z M26.2682927,14.2560976 C26.5639855,14.1720812 26.8684966,14.1229665 27.1756098,14.1097561 C27.3712945,14.1002398 27.5626301,14.0486624 27.7365854,13.9585366 C28.539383,13.5284485 29.4355975,13.3023009 30.3463415,13.3 C33.5414634,13.3 36.1682927,16.0243902 36.4439024,19.4829268 C35.7572202,19.0509782 34.9624606,18.8218507 34.1512195,18.8219512 L28.1195122,18.8219512 C27.8602164,18.8214386 27.6082717,18.7357431 27.402439,18.5780488 C27.224987,18.4464578 27.0873932,18.2683455 27.004878,18.0634146 C26.7569451,17.450967 26.1442286,17.0665316 25.4849144,17.1097471 C24.8256001,17.1529627 24.2683069,17.6140878 24.102439,18.2536585 C23.8465811,19.2240397 23.4042012,20.135309 22.8,20.9365854 C22.402439,17.8439024 23.8365854,14.9585366 26.2682927,14.2560976 Z M23.704878,23.902439 C24.6436789,23.0267599 25.4133964,21.9858637 25.9756098,20.8317073 C26.6099269,21.2561398 27.3562961,21.4820035 28.1195122,21.4804878 L34.1463415,21.4804878 C34.7621814,21.482807 35.3258735,21.8266592 35.6097561,22.3731707 C35.5853659,25.8682927 34.102439,28.8707317 31.9926829,30.1780488 C31.275285,30.6298464 30.4476928,30.8761837 29.6,30.8903158 C26.7512195,30.9073171 24.2414634,27.8804878 23.704878,23.902439 Z M33.5365854,36.3414634 C31.1927713,38.0521598 28.0121067,38.0521598 25.6682927,36.3414634 C26.5634659,35.4995565 27.2341712,34.4473874 27.6195122,33.2804878 C28.9175079,33.6772749 30.3044433,33.6772749 31.602439,33.2804878 C31.9821424,34.4459822 32.6469842,35.4981594 33.5365854,36.3414634 Z M42.3341463,46.4707317 L42.3341463,46.4707317 C42.3341463,46.6054353 42.2249475,46.7146341 42.0902439,46.7146341 L17.1,46.7146341 C16.9652964,46.7146341 16.8560976,46.6054353 16.8560976,46.4707317 L16.8560976,42.2097561 C16.8573839,41.1842892 17.2668218,40.2015143 17.9939934,39.4784613 C18.721165,38.7554084 19.7062496,38.3515593 20.7317073,38.3560976 C20.7609756,38.3560976 22.3658537,38.2634146 23.3170732,37.8414634 C26.8858963,41.0953938 32.345811,41.0953938 35.9146341,37.8414634 C36.9585366,38.3146341 38.4609756,38.3536585 38.4926829,38.3536585 C40.6198855,38.3563461 42.3436539,40.0801145 42.3463415,42.2073171 L42.3341463,46.4707317 Z" id="Shape" fill="#0A2448"></path>
                        <path d="M50.9756098,14.4439024 L50.9756098,6.58536585 C50.9756098,5.76771502 50.3127728,5.10487805 49.495122,5.10487805 C48.6774711,5.10487805 48.0146341,5.76771502 48.0146341,6.58536585 L48.0146341,14.4390244 C48.0146341,15.2566752 48.6774711,15.9195122 49.495122,15.9195122 C50.3127728,15.9195122 50.9756098,15.2566752 50.9756098,14.4390244 L50.9756098,14.4439024 Z" id="Path" fill="#0A2448"></path>
                    </g>
                </g>
            </g>
        </g>
    </g>
</svg>