<?xml version="1.0" encoding="UTF-8"?>
<svg width="60px" height="62px" viewBox="0 0 60 62" version="1.1" xmlns="http://www.w3.org/2000/svg" xmlns:xlink="http://www.w3.org/1999/xlink">
    <title>1B95FE91-48FC-4964-8EB4-BABABC80572E@1.00x</title>
    <g id="06_External-Pages" stroke="none" stroke-width="1" fill="none" fill-rule="evenodd">
        <g id="06.1_Freelancers-Site" transform="translate(-635.000000, -2625.000000)" fill-rule="nonzero">
            <g id="Your-Talent" transform="translate(242.000000, 2176.000000)">
                <g id="02" transform="translate(368.000000, 407.376147)">
                    <g id="Icons_Diversity" transform="translate(25.000000, 42.623853)">
                        <circle id="Oval" fill="#6AE4B0" cx="12.4146341" cy="30" r="10.7463415"></circle>
                        <circle id="Oval" fill="#6AE4B0" cx="47.5853659" cy="30" r="10.7463415"></circle>
                        <path d="M12.4146341,42.4146341 C5.55822103,42.4146341 0,36.8564131 0,30 C0,23.1435869 5.55822103,17.5853659 12.4146341,17.5853659 C19.2710473,17.5853659 24.8292683,23.1435869 24.8292683,30 C24.8158484,36.8508467 19.2654808,42.4012142 12.4146341,42.4146341 Z M12.4146341,20.9219512 C7.40096625,20.9219512 3.33658537,24.9863321 3.33658537,30 C3.33658537,35.0136679 7.40096625,39.0780488 12.4146341,39.0780488 C17.428302,39.0780488 21.4926829,35.0136679 21.4926829,30 C21.485965,24.9891174 17.4255168,20.9286691 12.4146341,20.9219512 Z" id="Shape" fill="#0A2448"></path>
                        <path d="M47.5853659,42.4146341 C40.7289527,42.4146341 35.1707317,36.8564131 35.1707317,30 C35.1707317,23.1435869 40.7289527,17.5853659 47.5853659,17.5853659 C54.441779,17.5853659 60,23.1435869 60,30 C59.9865801,36.8508467 54.4362126,42.4012142 47.5853659,42.4146341 Z M47.5853659,20.9219512 C42.571698,20.9219512 38.5073171,24.9863321 38.5073171,30 C38.5073171,35.0136679 42.571698,39.0780488 47.5853659,39.0780488 C52.5990338,39.0780488 56.6634146,35.0136679 56.6634146,30 C56.6566967,24.9891174 52.5962485,20.9286691 47.5853659,20.9219512 Z" id="Shape" fill="#0A2448"></path>
                        <path d="M22.7439024,25.0439024 C27.3869864,23.1090786 32.6105745,23.1090786 37.2536585,25.0439024 L35.2829268,27.9341463 C31.8877841,26.5975636 28.1122159,26.5975636 24.7170732,27.9341463 L22.7439024,25.0439024 Z" id="Path" fill="#0A2448"></path>
                        <path d="M58.4634146,-3.46606213e-15 L33.3414634,-3.46606213e-15 C32.4928308,-3.46606213e-15 31.804878,0.687952701 31.804878,1.53658537 C31.804878,2.38521803 32.4928308,3.07317073 33.3414634,3.07317073 L58.4634146,3.07317073 C59.3120473,3.07317073 60,2.38521803 60,1.53658537 C60,0.687952701 59.3120473,-3.46606213e-15 58.4634146,-3.46606213e-15 L58.4634146,-3.46606213e-15 Z" id="Path" fill="#0A2448"></path>
                        <path d="M26.6585366,56.9268293 L1.53658537,56.9268293 C0.687952701,56.9268293 0,57.614782 0,58.4634146 C0,59.3120473 0.687952701,60 1.53658537,60 L26.6585366,60 C27.5071692,60 28.195122,59.3120473 28.195122,58.4634146 C28.195122,57.614782 27.5071692,56.9268293 26.6585366,56.9268293 Z" id="Path" fill="#0A2448"></path>
                    </g>
                </g>
            </g>
        </g>
    </g>
</svg>