<?xml version="1.0" encoding="UTF-8"?>
<svg width="40px" height="41px" viewBox="0 0 40 41" version="1.1" xmlns="http://www.w3.org/2000/svg" xmlns:xlink="http://www.w3.org/1999/xlink">
    <title>CC19AABD-6740-4F4B-A9FA-1A88C9EE8782@1.00x</title>
    <g id="06_External-Pages" stroke="none" stroke-width="1" fill="none" fill-rule="evenodd">
        <g id="06.3_Freelancers-Site" transform="translate(-811.000000, -697.000000)" fill-rule="nonzero">
            <g id="About" transform="translate(210.000000, 678.000000)">
                <g id="01" transform="translate(601.000000, 17.000000)">
                    <g id="Icons_100k-freelancers-and-services" transform="translate(0.000000, 2.000000)">
                        <path d="M20.4325203,26.1560976 C20.4325203,26.1560976 23.0341463,24.3674797 23.6845528,24.3674797 C24.3349593,24.3674797 25.798374,24.5300813 26.9365854,25.1804878 C28.3585519,26.0398339 29.2233387,27.584096 29.2130997,29.2455285 C29.2130997,31.196748 28.2373984,32.3349593 26.9365854,32.3349593 L10.6764228,32.3349593 C10.6764228,32.3349593 10.1886179,30.7089431 10.1886179,29.895935 C10.1886179,29.0829268 10.5138211,25.9934959 11.1642276,25.6682927 C11.8146341,25.3430894 13.9284553,24.5300813 14.904065,24.5300813 C15.8796748,24.5300813 16.8552846,25.3430894 17.3430894,25.3430894 C17.8308943,25.3430894 19.2943089,25.8308943 19.7821138,25.8308943 C20.0424498,25.8102825 20.2928082,25.9354617 20.4325203,26.1560976 Z" id="Path" fill="#6AE4B0"></path>
                        <path d="M29.8634146,2.09105691 C29.8634146,2.09105691 31.8146341,0.790243902 33.603252,1.11544715 C35.3918699,1.44065041 36.8552846,1.76585366 37.6682927,3.55447154 C38.4813008,5.34308943 40.1073171,7.45691057 38.6439024,9.40813008 C37.1804878,11.3593496 33.4406504,14.1235772 31.1642276,12.8227642 C28.8878049,11.5219512 26.6113821,9.40813008 26.6113821,8.2699187 C26.6113821,7.13170732 27.5869919,3.06666667 29.8634146,2.09105691 Z" id="Path" fill="#1371F0"></path>
                        <path d="M40.0000005,7.01138211 C39.9991817,4.12299118 38.2259612,1.53110357 35.5341563,0.483731055 C32.8423514,-0.56364146 29.7836724,0.148169784 27.8308943,2.27642276 C25.2869379,1.12537403 22.5255667,0.533730842 19.7333333,0.541463415 C11.7512053,0.541464092 4.55520212,5.35021655 1.50133404,12.725056 C-1.55253405,20.0998955 0.13725684,28.5881915 5.7826365,34.2312453 C11.4280162,39.8742991 19.9170078,41.5605919 27.2905882,38.5036851 C34.6641686,35.4467782 39.4699553,28.248794 39.4666667,20.2666667 C39.4743992,17.4744333 38.8827561,14.7130621 37.7317073,12.1691057 C39.1777346,10.8440979 40.0007628,8.97266737 40.0000005,7.01138211 Z M32.9886179,1.97073171 C35.7724922,1.97073171 38.0292683,4.22750777 38.0292683,7.01138211 C38.0292683,9.79525646 35.7724922,12.0520325 32.9886179,12.0520325 C30.2047435,12.0520325 27.9479675,9.79525646 27.9479675,7.01138211 C27.9497627,4.22877785 30.206013,1.97398316 32.9886179,1.97398374 L32.9886179,1.97073171 Z M19.7333333,38.0260163 C9.92511539,38.0260163 1.97398374,30.0748846 1.97398374,20.2666667 C1.97398374,10.4584487 9.92511539,2.50723622 19.7333333,2.50723622 C22.1264572,2.50005544 24.495813,2.98200521 26.695935,3.92357724 C25.3734707,6.6148893 25.9098453,9.84938299 28.0302312,11.9697688 C30.150617,14.0901547 33.3851107,14.6265293 36.0764228,13.304065 C37.0179948,15.504187 37.4999446,17.8735428 37.4927638,20.2666667 C37.4819292,30.0704268 29.5370935,38.0152626 19.7333333,38.0260163 L19.7333333,38.0260163 Z" id="Shape" fill="#0A2448"></path>
                        <path d="M25.795122,23.798374 C25.7739837,23.798374 23.497561,23.9252033 22.6715447,21.3593496 C23.1433025,20.9958554 23.5610264,20.567182 23.9121951,20.0861789 C24.7345352,18.9378298 25.2561012,17.601771 25.4292683,16.2 C25.4876406,16.1314016 25.5348325,16.0540289 25.5691057,15.9707317 C25.9115068,15.1524773 26.086761,14.2739947 26.0845528,13.3869919 C26.0845528,9.91869919 23.4585366,7.09752216 20.2308943,7.09752216 C19.4019842,7.09443023 18.5833178,7.28074359 17.8373984,7.64227642 C17.562125,7.66706253 17.2898708,7.71824632 17.0243902,7.79512195 C14.3203252,8.57560976 12.796748,11.8373984 13.6097561,15.0634146 C13.6917299,15.3857257 13.7960472,15.7019375 13.9219512,16.0097561 C13.9554675,16.0891789 13.9997883,16.1635941 14.0536585,16.2308943 C14.3626016,18.4276423 15.3902439,20.2634146 16.8,21.3414634 C16.1186992,23.8943089 13.695935,23.7934959 13.6747967,23.795122 C11.3324303,23.873096 9.47300192,25.7929235 9.4699187,28.1365854 L9.4699187,30.9739837 C9.47081528,32.0413627 10.3358731,32.9064205 11.403252,32.9073171 L28.0699187,32.9073171 C29.1366626,32.9055246 30.0007311,32.0407287 30.001626,30.9739837 L30.001626,28.1398374 C29.998513,25.7955655 28.1381271,23.875492 25.795122,23.798374 L25.795122,23.798374 Z M17.5121951,9.50406504 C17.7093237,9.44805411 17.9123311,9.41531098 18.1170732,9.40650407 C18.2475297,9.40015985 18.3750867,9.36577491 18.4910569,9.30569106 C19.0262553,9.01896568 19.6237317,8.86820062 20.2308943,8.86666667 C22.3609756,8.86666667 24.1121951,10.6829268 24.295935,12.9886179 C23.8381468,12.7006521 23.3083071,12.5479005 22.7674797,12.5479675 L18.7463415,12.5479675 C18.5734776,12.5476257 18.4055145,12.4904954 18.2682927,12.3853659 C18.1499913,12.2976385 18.0582621,12.178897 18.003252,12.0422764 C17.8379634,11.633978 17.4294857,11.3776877 16.9899429,11.4064981 C16.5504001,11.4353084 16.1788712,11.7427252 16.0682927,12.1691057 C15.8977207,12.8160264 15.6028008,13.4235394 15.2,13.9577236 C14.9349593,11.895935 15.8910569,9.97235772 17.5121951,9.50406504 Z M15.803252,15.9349593 C16.4291192,15.3511733 16.9422642,14.6572425 17.3170732,13.8878049 C17.7399513,14.1707598 18.2375307,14.3213357 18.7463415,14.3203252 L22.7642276,14.3203252 C23.1747876,14.3218714 23.5505823,14.5511061 23.7398374,14.9154472 C23.7235772,17.2455285 22.7349593,19.2471545 21.3284553,20.1186992 C20.85019,20.4198976 20.2984619,20.5841225 19.7333333,20.5935438 C17.8341463,20.604878 16.1609756,18.5869919 15.803252,15.9349593 Z M22.3577236,24.2276423 C20.7951809,25.3681065 18.6747378,25.3681065 17.1121951,24.2276423 C17.7089772,23.666371 18.1561142,22.9649249 18.4130081,22.1869919 C19.2783386,22.4515166 20.2029622,22.4515166 21.0682927,22.1869919 C21.3214282,22.9639881 21.7646562,23.6654396 22.3577236,24.2276423 Z M28.2227642,30.9804878 L28.2227642,30.9804878 C28.2227642,31.0702902 28.149965,31.1430894 28.0601626,31.1430894 L11.4,31.1430894 C11.3101976,31.1430894 11.2373984,31.0702902 11.2373984,30.9804878 L11.2373984,28.1398374 C11.238256,27.4561928 11.5112145,26.8010095 11.9959956,26.3189742 C12.4807766,25.8369389 13.1374998,25.5677062 13.8211382,25.5707317 C13.8406504,25.5707317 14.9105691,25.5089431 15.5447154,25.2276423 C17.9239309,27.3969292 21.563874,27.3969292 23.9430894,25.2276423 C24.6390244,25.5430894 25.6406504,25.5691057 25.6617886,25.5691057 C27.0799237,25.5708974 28.2291026,26.7200763 28.2308943,28.1382114 L28.2227642,30.9804878 Z" id="Shape" fill="#0A2448"></path>
                        <path d="M32.5804878,9.3528529 C32.3805492,9.35373161 32.1885422,9.27470435 32.0471545,9.13333333 L30.2065041,7.29918699 C30.064809,7.15819944 29.9851457,6.96655412 29.9851457,6.76666667 C29.9851457,6.56677921 30.064809,6.37513389 30.2065041,6.23414634 C30.5018424,5.94149944 30.9778324,5.94149944 31.2731707,6.23414634 L32.5739837,7.53495935 L35.2146341,4.90406504 C35.5099725,4.61141814 35.9859624,4.61141814 36.2813008,4.90406504 C36.4229959,5.04505259 36.5026592,5.23669791 36.5026592,5.43658537 C36.5026592,5.63647282 36.4229959,5.82811814 36.2813008,5.96910569 L33.1073171,9.13170732 C32.967588,9.27178319 32.7783333,9.35122342 32.5804878,9.3528529 L32.5804878,9.3528529 Z" id="Path" fill="#0A2448"></path>
                    </g>
                </g>
            </g>
        </g>
    </g>
</svg>