<?xml version="1.0" encoding="UTF-8"?>
<svg width="40px" height="40px" viewBox="0 0 40 40" version="1.1" xmlns="http://www.w3.org/2000/svg" xmlns:xlink="http://www.w3.org/1999/xlink">
    <title>3B9D08A6-38F1-451D-8985-9C523AD8DA03@1.00x</title>
    <g id="06_External-Pages" stroke="none" stroke-width="1" fill="none" fill-rule="evenodd">
        <g id="06.3_Freelancers-Site" transform="translate(-1111.000000, -698.000000)" fill-rule="nonzero">
            <g id="About" transform="translate(210.000000, 678.000000)">
                <g id="Icons_100m-words-processed" transform="translate(901.000000, 20.000000)">
                    <polygon id="Path" fill="#1371F0" points="17.704918 6.39344262 17.704918 12.7868852 10.7360656 12.7868852 10.7360656 10.5721311 14.7540984 5.90163934 17.3229508 5.8147541"></polygon>
                    <polygon id="Path" fill="#6AE4B0" points="34.0983607 5.57377049 33.9344262 2.45901639 32.295082 0.819672131 7.70491803 0.819672131 5.90163934 2.45901639 5.90163934 32.9508197 6.72131148 34.0983607 7.86885246 34.0983607 9.67213115 34.0983607 10.4918033 34.0983607 10.4918033 11.3114754 14.7540984 5.90163934 16.3934426 5.57377049"></polygon>
                    <path d="M12.9508197,39.9508197 C11.1679052,39.9472235 9.72270263,38.5042184 9.71639344,36.7213115 L9.71639344,35.204918 L8.19672131,35.204918 C6.4112563,35.2004033 4.96573496,33.7526829 4.96393443,31.9672131 L4.96393443,3.27868852 C4.97023931,1.49641956 6.41444687,0.0536767129 8.19672131,0.0491803279 L31.9672131,0.0491803279 C33.7501276,0.0527764851 35.1953302,1.49578158 35.2016393,3.27868852 L35.2016393,4.79508197 L36.7213115,4.79508197 C38.5067765,4.79959667 39.9522978,6.24731707 39.9540984,8.03278689 L39.9540984,36.7213115 C39.9477935,38.5035804 38.5035859,39.9463233 36.7213115,39.9508197 L12.9508197,39.9508197 Z M11.4377049,36.7213115 C11.4422058,37.5543123 12.1178086,38.2277192 12.9508197,38.2295082 L36.7213115,38.2295082 C37.5578871,38.2295082 38.2360656,37.5513297 38.2360656,36.7147541 L38.2360656,8.03278689 C38.2360656,7.1959457 37.5581522,6.51729814 36.7213115,6.51639344 L18.5672131,6.51639344 L18.5672131,12.7868852 C18.566311,13.2618381 18.1815103,13.6466389 17.7065574,13.647541 L11.4377049,13.647541 L11.4377049,36.7213115 Z M8.19672131,1.7704918 C7.36014572,1.7704918 6.68196721,2.44867031 6.68196721,3.2852459 L6.68196721,31.9672131 C6.68196721,32.8040543 7.35988061,33.4827019 8.19672131,33.4836066 L9.71311475,33.4836066 L9.71311475,11.4 C9.70940098,10.5390551 10.0506556,9.71248675 10.6606557,9.10491803 L14.0213115,5.74262295 C14.6292946,5.13324275 15.4555922,4.79209988 16.3163934,4.79508197 L33.4803279,4.79508197 L33.4803279,3.27868852 C33.475827,2.44568766 32.8002242,1.77228075 31.9672131,1.7704918 L8.19672131,1.7704918 Z M16.3114754,6.52459016 C15.9114754,6.52415291 15.5278688,6.68349718 15.2459016,6.96721311 L11.8819672,10.3278689 C11.5963409,10.6113729 11.4363138,10.9975637 11.4376959,11.4 L11.4376959,11.9311475 L16.847541,11.9311475 L16.847541,6.52131148 L16.3114754,6.52459016 Z" id="Shape" fill="#0A2448"></path>
                    <path d="M15.3295082,18.5639344 C14.8541812,18.5639344 14.4688525,18.1786057 14.4688525,17.7032787 C14.4688525,17.2279516 14.8541812,16.842623 15.3295082,16.842623 L34.3459016,16.842623 C34.8212287,16.842623 35.2065574,17.2279516 35.2065574,17.7032787 C35.2065574,18.1786057 34.8212287,18.5639344 34.3459016,18.5639344 L15.3295082,18.5639344 Z" id="Path" fill="#0A2448"></path>
                    <path d="M15.3295082,23.3163934 C14.8541812,23.3163934 14.4688525,22.9310647 14.4688525,22.4557377 C14.4688525,21.9804107 14.8541812,21.595082 15.3295082,21.595082 L34.3459016,21.595082 C34.8212287,21.595082 35.2065574,21.9804107 35.2065574,22.4557377 C35.2065574,22.9310647 34.8212287,23.3163934 34.3459016,23.3163934 L15.3295082,23.3163934 Z" id="Path" fill="#0A2448"></path>
                    <path d="M15.3295082,28.0688525 C14.8541812,28.0688525 14.4688525,27.6835238 14.4688525,27.2081967 C14.4688525,26.7328697 14.8541812,26.347541 15.3295082,26.347541 L34.3459016,26.347541 C34.8212287,26.347541 35.2065574,26.7328697 35.2065574,27.2081967 C35.2065574,27.6835238 34.8212287,28.0688525 34.3459016,28.0688525 L15.3295082,28.0688525 Z" id="Path" fill="#0A2448"></path>
                    <path d="M15.3295082,32.8213115 C15.0133621,32.8351191 14.7151388,32.6743221 14.5529448,32.4026015 C14.3907508,32.1308808 14.3907508,31.79207 14.5529448,31.5203494 C14.7151388,31.2486288 15.0133621,31.0878317 15.3295082,31.1016393 L34.3459016,31.1016393 C34.6620477,31.0878317 34.960271,31.2486288 35.122465,31.5203494 C35.284659,31.79207 35.284659,32.1308808 35.122465,32.4026015 C34.960271,32.6743221 34.6620477,32.8351191 34.3459016,32.8213115 L15.3295082,32.8213115 Z" id="Path" fill="#0A2448"></path>
                    <path d="M3.27868852,30.7721311 C1.49577675,30.7676302 0.0513069367,29.3238929 0.0459016393,27.5409836 L0.0459016393,8.19672131 C0.0522065193,6.41445235 1.49641408,4.9717095 3.27868852,4.96721311 L5.29508197,4.96721311 L5.29508197,6.68852459 L3.27868852,6.68852459 C2.87695076,6.68852459 2.49166713,6.8481143 2.20759563,7.13218579 C1.92352413,7.41625729 1.76393443,7.80154092 1.76393443,8.20327869 L1.76393443,27.5409836 C1.76393394,28.3778248 2.44184783,29.0564724 3.27868852,29.057377 L5.24590164,29.057377 L5.24590164,30.7786885 L3.27868852,30.7721311 Z" id="Path" fill="#0A2448"></path>
                </g>
            </g>
        </g>
    </g>
</svg>