<?xml version="1.0" encoding="UTF-8"?>
<svg width="40px" height="40px" viewBox="0 0 40 40" version="1.1" xmlns="http://www.w3.org/2000/svg" xmlns:xlink="http://www.w3.org/1999/xlink">
    <title>20B3162D-681A-42E7-917D-14C9586147AE@1.00x</title>
    <g id="06_External-Pages" stroke="none" stroke-width="1" fill="none" fill-rule="evenodd">
        <g id="06.3_Freelancers-Site" transform="translate(-811.000000, -902.000000)" fill-rule="nonzero">
            <g id="About" transform="translate(210.000000, 678.000000)">
                <g id="Icons_35-active-cities-where-we-operate" transform="translate(601.000000, 224.000000)">
                    <path d="M34.9206349,30.4761905 L38.8888889,30.4761905 L38.8888889,38.8888889 L34.4444444,38.8888889 C34.4444444,38.8888889 34.9206349,30.2873016 34.9206349,30.4761905 Z" id="Path" fill="#1371F0"></path>
                    <polygon id="Path" fill="#6AE4B0" points="6.03174603 10.3174603 16.3492063 10.3174603 16.3492063 39.2063492 5.87301587 39.2063492"></polygon>
                    <path d="M0.952380952,39.8761905 C0.464196786,39.8744446 0.0691241689,39.4786627 0.0682539683,38.9904762 L0.0682539683,25.2380952 C0.0691276096,24.7501677 0.464453434,24.3548419 0.952380952,24.3539683 L4.93650794,24.3539683 L4.93650794,10.3174603 C4.93650715,9.82891303 5.33208842,9.43262156 5.82063492,9.43174603 L13.0634921,9.43174603 L13.0634921,1.00952381 C13.0643657,0.52071965 13.4604022,0.124683171 13.9492063,0.123809524 L26.0793651,0.123809524 C26.5675492,0.125555393 26.9626219,0.521337297 26.9634921,1.00952381 L26.9634921,18.0253968 L34.6301587,18.0253968 C35.1193252,18.0253968 35.515873,18.4219446 35.515873,18.9111111 L35.515873,20.9 C35.4957867,21.3741607 35.1055383,21.7482274 34.6309524,21.7482274 C34.1563664,21.7482274 33.7661181,21.3741607 33.7460317,20.9 L33.7460317,19.7888889 L24.3349206,19.7888889 L24.3349206,38.1063492 L33.7412698,38.1063492 L33.7412698,25.2095238 C33.7274983,24.8844319 33.8930866,24.5779638 34.172553,24.4113117 C34.4520195,24.2446596 34.8003615,24.2446596 35.0798279,24.4113117 C35.3592944,24.5779638 35.5248826,24.8844319 35.5111111,25.2095238 L35.5111111,29.6730159 L39.047619,29.6730159 C39.5355466,29.6738895 39.9308724,30.0692153 39.931746,30.5571429 L39.931746,38.9904762 C39.9308758,39.4786627 39.5358032,39.8744446 39.047619,39.8761905 L0.952380952,39.8761905 Z M16.3492063,9.43174603 L16.8412698,9.43174603 C17.3304363,9.43174603 17.7269841,9.82829382 17.7269841,10.3174603 L17.7269841,38.1063492 L22.5714286,38.1063492 L22.5714286,18.9111111 C22.5714278,18.4225638 22.9670091,18.0262724 23.4555556,18.0253968 L25.2015873,18.0253968 L25.2015873,1.89365079 L14.8285714,1.89365079 L14.8285714,9.43174603 L16.3492063,9.43174603 Z M6.7015873,38.1063492 L15.9507937,38.1063492 L15.9507937,35.484127 L6.7015873,35.484127 L6.7015873,38.1063492 Z M35.5111111,38.1063492 L38.1666667,38.1063492 L38.1666667,31.4396825 L35.5111111,31.4396825 L35.5111111,38.1063492 Z M1.83333333,38.1063492 L4.93174603,38.1063492 L4.93174603,26.1238095 L1.83333333,26.1238095 L1.83333333,38.1063492 Z M6.7015873,33.7142857 L15.9507937,33.7142857 L15.9507937,31.5571429 L12.1079365,31.5571429 C11.7828446,31.5709144 11.4763765,31.4053261 11.3097244,31.1258597 C11.1430723,30.8463932 11.1430723,30.4980512 11.3097244,30.2185848 C11.4763765,29.9391183 11.7828446,29.7735301 12.1079365,29.7873016 L15.9507937,29.7873016 L15.9507937,27.6301587 L6.7015873,27.6301587 L6.7015873,29.7873016 L9.38571429,29.7873016 C9.85987499,29.8073879 10.2339417,30.1976363 10.2339417,30.6722222 C10.2339417,31.1468082 9.85987499,31.5370565 9.38571429,31.5571429 L6.7015873,31.5571429 L6.7015873,33.7142857 Z M6.7015873,25.8603175 L15.9507937,25.8603175 L15.9507937,23.7031746 L6.7015873,23.7031746 L6.7015873,25.8603175 Z M6.7015873,21.9333333 L15.9507937,21.9333333 L15.9507937,19.7761905 L6.7015873,19.7761905 L6.7015873,21.9333333 Z M6.7015873,18.0079365 L15.9507937,18.0079365 L15.9507937,15.8507937 L6.7015873,15.8507937 L6.7015873,18.0079365 Z M6.7015873,14.0809524 L15.9507937,14.0809524 L15.9507937,11.2015873 L6.7015873,11.2015873 L6.7015873,14.0809524 Z" id="Shape" fill="#0A2448"></path>
                    <path d="M23.4492063,16.2793651 C22.9612788,16.2784914 22.565953,15.8831656 22.5650794,15.3952381 L22.5650794,13.6507937 C22.5513079,13.3257017 22.7168961,13.0192336 22.9963626,12.8525816 C23.275829,12.6859295 23.624171,12.6859295 23.9036374,12.8525816 C24.1831039,13.0192336 24.3486921,13.3257017 24.3349206,13.6507937 L24.3349206,15.3968254 C24.3331718,15.8847517 23.9371358,16.2793651 23.4492063,16.2793651 Z" id="Path" fill="#0A2448"></path>
                    <path d="M20.0095238,16.2793651 C19.5209765,16.2793651 19.1246851,15.8837846 19.1238095,15.3952381 L19.1238095,13.6507937 C19.110038,13.3257017 19.2756263,13.0192336 19.5550927,12.8525816 C19.8345592,12.6859295 20.1829012,12.6859295 20.4623676,12.8525816 C20.7418341,13.0192336 20.9074223,13.3257017 20.8936508,13.6507937 L20.8936508,15.3968254 C20.8919049,15.8841329 20.4968337,16.2784949 20.0095238,16.2793651 Z" id="Path" fill="#0A2448"></path>
                    <path d="M23.4492063,11.2015873 C22.9612788,11.2007137 22.565953,10.8053878 22.5650794,10.3174603 L22.5650794,8.57142857 C22.5513079,8.24633665 22.7168961,7.93986856 22.9963626,7.77321648 C23.275829,7.60656439 23.624171,7.60656439 23.9036374,7.77321648 C24.1831039,7.93986856 24.3486921,8.24633665 24.3349206,8.57142857 L24.3349206,10.3174603 C24.3340451,10.8060068 23.9377536,11.2015873 23.4492063,11.2015873 L23.4492063,11.2015873 Z" id="Path" fill="#0A2448"></path>
                    <path d="M20.0095238,11.2015873 C19.5209765,11.2015873 19.1246851,10.8060068 19.1238095,10.3174603 L19.1238095,8.57142857 C19.110038,8.24633665 19.2756263,7.93986856 19.5550927,7.77321648 C19.8345592,7.60656439 20.1829012,7.60656439 20.4623676,7.77321648 C20.7418341,7.93986856 20.9074223,8.24633665 20.8936508,8.57142857 L20.8936508,10.3174603 C20.8927772,10.8053878 20.4974513,11.2007137 20.0095238,11.2015873 L20.0095238,11.2015873 Z" id="Path" fill="#0A2448"></path>
                    <path d="M16.568254,6.12382233 C16.0803265,6.12293588 15.6850006,5.72761006 15.684127,5.23968254 L15.684127,3.49206349 C15.684127,3.00158204 16.0817408,2.60396825 16.5722222,2.60396825 C17.0627037,2.60396825 17.4603175,3.00158204 17.4603175,3.49206349 L17.4603175,5.23809524 C17.4598989,5.47397442 17.3655761,5.69997916 17.1981895,5.86617445 C17.0308028,6.03236974 16.8041301,6.1250758 16.568254,6.12382233 L16.568254,6.12382233 Z" id="Path" fill="#0A2448"></path>
                    <path d="M23.4492063,6.12380952 C22.9612788,6.12293588 22.565953,5.72761006 22.5650794,5.23968254 L22.5650794,3.49206349 C22.5513079,3.16697157 22.7168961,2.86050348 22.9963626,2.6938514 C23.275829,2.52719931 23.624171,2.52719931 23.9036374,2.6938514 C24.1831039,2.86050348 24.3486921,3.16697157 24.3349206,3.49206349 L24.3349206,5.23809524 C24.3349206,5.72726173 23.9383728,6.12380952 23.4492063,6.12380952 L23.4492063,6.12380952 Z" id="Path" fill="#0A2448"></path>
                    <path d="M20.0095238,6.12380952 C19.5209765,6.12380952 19.1246851,5.72822904 19.1238095,5.23968254 L19.1238095,3.49206349 C19.110038,3.16697157 19.2756263,2.86050348 19.5550927,2.6938514 C19.8345592,2.52719931 20.1829012,2.52719931 20.4623676,2.6938514 C20.7418341,2.86050348 20.9074223,3.16697157 20.8936508,3.49206349 L20.8936508,5.23809524 C20.8936516,5.72664252 20.4980703,6.12293399 20.0095238,6.12380952 L20.0095238,6.12380952 Z" id="Path" fill="#0A2448"></path>
                    <path d="M20.0095238,21.3825397 C19.5209765,21.3825397 19.1246851,20.9869592 19.1238095,20.4984127 L19.1238095,18.752381 C19.1438958,18.2782202 19.5341442,17.9041535 20.0087302,17.9041535 C20.4833161,17.9041535 20.8735645,18.2782202 20.8936508,18.752381 L20.8936508,20.4984127 C20.8927772,20.9863402 20.4974513,21.381666 20.0095238,21.3825397 Z" id="Path" fill="#0A2448"></path>
                    <path d="M20.0095238,36.6920635 C19.7746178,36.6920635 19.5493329,36.5987474 19.3832292,36.4326438 C19.2171256,36.2665401 19.1238095,36.0412552 19.1238095,35.8063492 L19.1238095,34.0603175 C19.110038,33.7352255 19.2756263,33.4287575 19.5550927,33.2621054 C19.8345592,33.0954533 20.1829012,33.0954533 20.4623676,33.2621054 C20.7418341,33.4287575 20.9074223,33.7352255 20.8936508,34.0603175 L20.8936508,35.8063492 C20.8936516,36.2948965 20.4980703,36.691188 20.0095238,36.6920635 Z" id="Path" fill="#0A2448"></path>
                    <path d="M20.0095238,31.5873016 C19.7746178,31.5873016 19.5493329,31.4939855 19.3832292,31.3278819 C19.2171256,31.1617782 19.1238095,30.9364933 19.1238095,30.7015873 L19.1238095,28.9555556 C19.1438958,28.4813949 19.5341442,28.1073281 20.0087302,28.1073281 C20.4833161,28.1073281 20.8735645,28.4813949 20.8936508,28.9555556 L20.8936508,30.7015873 C20.8936508,31.1901346 20.4980703,31.5864261 20.0095238,31.5873016 Z" id="Path" fill="#0A2448"></path>
                    <path d="M20.0095238,26.4857143 C19.5209765,26.4857143 19.1246851,26.0901338 19.1238095,25.6015873 L19.1238095,23.8555556 C19.1438958,23.3813949 19.5341442,23.0073281 20.0087302,23.0073281 C20.4833161,23.0073281 20.8735645,23.3813949 20.8936508,23.8555556 L20.8936508,25.6015873 C20.8927772,26.0895148 20.4974513,26.4848406 20.0095238,26.4857143 Z" id="Path" fill="#0A2448"></path>
                    <path d="M26.4460317,33.4920635 C25.9577419,33.4920635 25.5619048,33.0962264 25.5619048,32.6079365 C25.5619048,32.1196467 25.9577419,31.7238095 26.4460317,31.7238095 L31.6285714,31.7238095 C32.1168613,31.7238095 32.5126984,32.1196467 32.5126984,32.6079365 C32.5126984,33.0962264 32.1168613,33.4920635 31.6285714,33.4920635 L26.4460317,33.4920635 Z" id="Path" fill="#0A2448"></path>
                    <path d="M26.4460317,36.7269841 C25.971871,36.7068978 25.5978043,36.3166495 25.5978043,35.8420635 C25.5978043,35.3674775 25.971871,34.9772292 26.4460317,34.9571429 L31.6285714,34.9571429 C31.9536634,34.9433714 32.2601314,35.1089596 32.4267835,35.388426 C32.5934356,35.6678925 32.5934356,36.0162345 32.4267835,36.2957009 C32.2601314,36.5751674 31.9536634,36.7407556 31.6285714,36.7269841 L26.4460317,36.7269841 Z" id="Path" fill="#0A2448"></path>
                    <path d="M26.4460317,30.2619048 C25.971871,30.2418184 25.5978043,29.8515701 25.5978043,29.3769841 C25.5978043,28.9023982 25.971871,28.5121498 26.4460317,28.4920635 L31.6285714,28.4920635 C31.9536634,28.478292 32.2601314,28.6438802 32.4267835,28.9233467 C32.5934356,29.2028131 32.5934356,29.5511551 32.4267835,29.8306216 C32.2601314,30.110088 31.9536634,30.2756763 31.6285714,30.2619048 L26.4460317,30.2619048 Z" id="Path" fill="#0A2448"></path>
                    <path d="M26.4460317,27.0285714 C25.971871,27.0084851 25.5978043,26.6182368 25.5978043,26.1436508 C25.5978043,25.6690648 25.971871,25.2788165 26.4460317,25.2587302 L31.6285714,25.2587302 C31.9536634,25.2449587 32.2601314,25.4105469 32.4267835,25.6900133 C32.5934356,25.9694798 32.5934356,26.3178218 32.4267835,26.5972882 C32.2601314,26.8767547 31.9536634,27.0423429 31.6285714,27.0285714 L26.4460317,27.0285714 Z" id="Path" fill="#0A2448"></path>
                    <path d="M26.4460317,23.7952381 C25.971871,23.7751518 25.5978043,23.3849034 25.5978043,22.9103175 C25.5978043,22.4357315 25.971871,22.0454832 26.4460317,22.0253968 L31.6285714,22.0253968 C31.9536634,22.0116253 32.2601314,22.1772136 32.4267835,22.45668 C32.5934356,22.7361465 32.5934356,23.0844885 32.4267835,23.3639549 C32.2601314,23.6434214 31.9536634,23.8090096 31.6285714,23.7952381 L26.4460317,23.7952381 Z" id="Path" fill="#0A2448"></path>
                    <path d="M29.284127,13.6063492 C28.9590351,13.6201207 28.652567,13.4545325 28.4859149,13.175066 C28.3192628,12.8955996 28.3192628,12.5472576 28.4859149,12.2677911 C28.652567,11.9883247 28.9590351,11.8227364 29.284127,11.8365079 L36.3984127,11.8365079 C36.7235046,11.8227364 37.0299727,11.9883247 37.1966248,12.2677911 C37.3632769,12.5472576 37.3632769,12.8955996 37.1966248,13.175066 C37.0299727,13.4545325 36.7235046,13.6201207 36.3984127,13.6063492 L29.284127,13.6063492 Z" id="Path" fill="#0A2448"></path>
                    <path d="M33.4825397,16.3730159 C33.008379,16.3529295 32.6343123,15.9626812 32.6343123,15.4880952 C32.6343123,15.0135093 33.008379,14.6232609 33.4825397,14.6031746 L38.6142857,14.6031746 C38.9393776,14.5894031 39.2458457,14.7549913 39.4124978,15.0344578 C39.5791499,15.3139242 39.5791499,15.6622662 39.4124978,15.9417327 C39.2458457,16.2211991 38.9393776,16.3867874 38.6142857,16.3730159 L33.4825397,16.3730159 Z" id="Path" fill="#0A2448"></path>
                    <path d="M5.73650794,5.93174603 C5.41141601,5.94551753 5.10494793,5.77992929 4.93829584,5.50046284 C4.77164375,5.2209964 4.77164375,4.87265439 4.93829584,4.59318795 C5.10494793,4.3137215 5.41141601,4.14813327 5.73650794,4.16190476 L10.868254,4.16190476 C11.3424147,4.18199109 11.7164814,4.57223944 11.7164814,5.0468254 C11.7164814,5.52141136 11.3424147,5.91165971 10.868254,5.93174603 L5.73650794,5.93174603 Z" id="Path" fill="#0A2448"></path>
                    <path d="M2.82063492,8.50952381 C2.50476676,8.50952381 2.21289253,8.34101018 2.05495845,8.06746033 C1.89702436,7.79391048 1.89702436,7.45688317 2.05495845,7.18333332 C2.21289253,6.90978347 2.50476676,6.74126984 2.82063492,6.74126984 L7.95238095,6.74126984 C8.44067078,6.74126984 8.83650788,7.137107 8.83650788,7.62539683 C8.83650788,8.11368666 8.44067078,8.50952381 7.95238095,8.50952381 L2.82063492,8.50952381 Z" id="Path" fill="#0A2448"></path>
                </g>
            </g>
        </g>
    </g>
</svg>