<svg id="Layer_1" data-name="Layer 1" xmlns="http://www.w3.org/2000/svg" viewBox="0 0 212.26 274.05"><path d="M32,190.4v5.94q0,36,0,72c0,8.23-4.47,13.24-11.63,13.2S8.77,276.41,8.77,268.19q0-123.75,0-247.5c0-8.15,4.62-13.27,11.72-13.21,6.91,0,11.37,5.07,11.51,12.93.17,10.35.16,10.44,10.63,12,20.42,3,40.49-.23,60.64-3.23,21.55-3.2,43.18-6.22,64.88-8.13,14.67-1.29,29.22,1.52,43.28,6.2,7.16,2.38,9.59,5.69,9.59,13.26q0,66.5,0,133c0,10.82-6.92,15.79-17.2,12.33-18.31-6.16-37.05-6.15-55.86-3.67-22.95,3-45.76,7.36-68.78,9.47-14.28,1.31-28.85-.45-43.29-.85C34.87,190.73,33.89,190.58,32,190.4Zm165.58-30.58a12.16,12.16,0,0,0,.51-2.28c0-35.82.09-71.63-.07-107.44,0-1.29-2-3.49-3.36-3.69a198.26,198.26,0,0,0-23.27-2.66C148.89,43,127.13,48.68,105.1,52c-19.28,2.91-38.56,5.85-58.16,3.67-4.74-.52-9.46-1.24-14.18-1.87a7.39,7.39,0,0,0-.55,1.77c0,36-.09,72,.09,107.93,0,1.36,2.28,3.74,3.69,3.89,10.39,1.09,21,3.17,31.24,2.23,20.68-1.91,41.22-5.4,61.78-8.5,19.65-3,39.29-5.23,59.17-2.53C191.27,159,194.37,159.4,197.58,159.82Z" transform="translate(-8.76 -7.48)"/></svg>