<?xml version="1.0" encoding="UTF-8"?>
<svg width="60px" height="61px" viewBox="0 0 60 61" version="1.1" xmlns="http://www.w3.org/2000/svg" xmlns:xlink="http://www.w3.org/1999/xlink">
    <title>939B0FA2-A926-4ADC-AC3A-68448CC7A575@1.00x</title>
    <g id="06_External-Pages" stroke="none" stroke-width="1" fill="none" fill-rule="evenodd">
        <g id="06_Freelancers-Site" transform="translate(-241.000000, -1767.000000)" fill-rule="nonzero">
            <g id="Your-Talent" transform="translate(206.000000, 1508.000000)">
                <g id="01" transform="translate(35.000000, 202.000000)">
                    <g id="Icons_Create-an-account" transform="translate(0.000000, 57.000000)">
                        <path d="M31.0271605,39.2246914 C31.0271605,39.2246914 34.9777778,36.508642 35.9654321,36.508642 C36.9530864,36.508642 39.1753086,36.7555556 40.9037037,37.7432099 C43.0629862,39.0481429 44.3761809,41.3931334 44.3606328,43.9160494 C44.3606328,46.8790123 42.8790123,48.6074074 40.9037037,48.6074074 L16.2123457,48.6074074 C16.2123457,48.6074074 15.4716049,46.1382716 15.4716049,44.9037037 C15.4716049,43.6691358 15.9654321,38.9777778 16.9530864,38.4839506 C17.9407407,37.9901235 21.1506173,36.7555556 22.6320988,36.7555556 C24.1135802,36.7555556 25.5950617,37.9901235 26.3358025,37.9901235 C27.0765432,37.9901235 29.2987654,38.7308642 30.0395062,38.7308642 C30.4348312,38.6995647 30.815005,38.8896517 31.0271605,39.2246914 Z" id="Path" fill="#6AE4B0"></path>
                        <path d="M42.2617284,2.96296296 C38.3986835,1.21507414 34.2054902,0.316653007 29.9654321,0.328281432 C17.8444229,0.328281432 6.91715878,7.63057576 2.27980354,18.8294061 C-2.3575517,30.0282364 0.208427053,42.917871 8.78104061,51.4869527 C17.3536542,60.0560344 30.2443452,62.6167013 41.4412635,57.9747316 C52.6381819,53.3327619 59.935858,42.4024896 59.9309778,30.2814815 C59.9426063,26.0414233 59.0441851,21.8482301 57.2962963,17.9851852 M54.782716,19.7135802 C56.2125106,23.0545062 56.9443603,26.6524169 56.9334561,30.2864198 C56.9306061,45.1797372 44.8554581,57.2512006 29.9621405,57.2493825 C15.0688229,57.2475645 2.99662246,45.1731534 2.99753137,30.2798357 C2.99844027,15.386518 15.0721144,3.31345747 29.9654321,3.31345747 C33.599435,3.30255332 37.1973457,4.03440298 40.5382716,5.46419753" id="Shape" fill="#0A2448"></path>
                        <path d="M39.1703704,35.6444444 C39.1382716,35.6444444 35.6814815,35.837037 34.4271605,31.9407407 C35.1435335,31.388768 35.7778549,30.7378196 36.3111111,30.0074074 C37.5598497,28.263618 38.3518574,26.2347881 38.6148148,24.1061728 C38.7034543,24.0020049 38.775116,23.884513 38.8271605,23.7580247 C39.3471029,22.5154902 39.6132297,21.1814981 39.6098765,19.8345679 C39.6098765,14.5679012 35.6222222,10.2838917 30.7209877,10.2838917 C29.4622724,10.2791965 28.2191121,10.5621168 27.0864198,11.1111111 C26.668412,11.1487493 26.254989,11.2264728 25.8518519,11.3432099 C21.745679,12.5283951 19.4320988,17.4814815 20.6666667,22.3802469 C20.7911453,22.8696822 20.9495531,23.3498558 21.1407407,23.817284 C21.1916358,23.9378889 21.2589378,24.0508899 21.3407407,24.1530864 C21.8098765,27.4888889 23.3703704,30.2765432 25.5111111,31.9135802 C24.4765432,35.7901235 20.7975309,35.637037 20.7654321,35.6395062 C17.2085052,35.7579113 14.3849288,38.6732047 14.3802469,42.2320988 L14.3802469,46.5407407 C14.3816084,48.1615754 15.6952147,49.4751817 17.3160494,49.4765432 L42.6246914,49.4765432 C44.2445617,49.4738213 45.5566657,48.1606128 45.5580247,46.5407407 L45.5580247,42.237037 C45.5532975,38.6772167 42.7282671,35.7615495 39.1703704,35.6444444 Z M26.5925926,13.9382716 C26.8919359,13.853218 27.2002065,13.8034969 27.5111111,13.7901235 C27.7092117,13.7804897 27.9029095,13.7282755 28.0790123,13.637037 C28.8917211,13.2016392 29.799,12.9726997 30.7209877,12.9703704 C33.9555556,12.9703704 36.6148148,15.7283951 36.8938272,19.2296296 C36.1986673,18.7923483 35.394096,18.5603921 34.5728395,18.5604938 L28.4666667,18.5604938 C28.2041696,18.5599749 27.9491146,18.4732214 27.7407407,18.3135802 C27.561098,18.1803647 27.4218054,18.0000535 27.3382716,17.7925926 C27.0872778,17.1725838 26.4669969,16.7834023 25.7995429,16.8271514 C25.132089,16.8709005 24.5679156,17.3377185 24.4,17.9851852 C24.1409833,18.9675463 23.6931419,19.8900659 23.0814815,20.7012346 C22.6790123,17.5703704 24.1308642,14.6493827 26.5925926,13.9382716 Z M23.9975309,23.7037037 C24.9479218,22.8172137 25.727142,21.763467 26.2962963,20.5950617 C26.9384445,21.0247341 27.6940282,21.2533862 28.4666667,21.2518519 L34.5679012,21.2518519 C35.1913441,21.2541997 35.7619954,21.602297 36.0493827,22.1555556 C36.0246914,25.6938272 34.5234568,28.7333333 32.3876543,30.0567901 C31.6613997,30.5141655 30.8235903,30.763544 29.9654321,30.7778505 C27.0814815,30.7950617 24.5407407,27.7308642 23.9975309,23.7037037 Z M33.9506173,36.2962963 C31.5778673,38.0281124 28.3579352,38.0281124 25.9851852,36.2962963 C26.8914099,35.4439954 27.5703956,34.3788366 27.9604938,33.1975309 C29.2745142,33.5992166 30.6785722,33.5992166 31.9925926,33.1975309 C32.3769836,34.3774141 33.0500334,35.4425812 33.9506173,36.2962963 Z M42.8567901,46.5506173 L42.8567901,46.5506173 C42.8567901,46.6869839 42.7462431,46.7975309 42.6098765,46.7975309 L17.3111111,46.7975309 C17.1747445,46.7975309 17.0641975,46.6869839 17.0641975,46.5506173 L17.0641975,42.237037 C17.0654998,41.19891 17.4799924,40.2040021 18.2161414,39.4720226 C18.9522905,38.7400431 19.9495367,38.3312082 20.9876543,38.3358025 C21.017284,38.3358025 22.6419753,38.2419753 23.6049383,37.8148148 C27.217821,41.1089172 32.745142,41.1089172 36.3580247,37.8148148 C37.4148148,38.2938272 38.9358025,38.3333333 38.9679012,38.3333333 C41.1213656,38.3360541 42.8664151,40.0811035 42.8691358,42.2345679 L42.8567901,46.5506173 Z" id="Shape" fill="#0A2448"></path>
                        <path d="M50.3012346,0.987654321 C50.3012346,0.987654321 56.3111111,4.65432099 57.9259259,4.65432099 C59.5407407,4.65432099 58.5111111,6.85432099 58.5111111,6.85432099 C58.5111111,6.85432099 58.3654321,13.745679 56.8987654,15.7975309 C55.4320988,17.8493827 50.0074074,21.3703704 50.0074074,21.3703704 L45.6074074,19.1703704 L42.2345679,13.891358 L41.2098765,6.70617284 L41.2098765,4.8 L50.3012346,0.987654321 Z" id="Path" fill="#1371F0"></path>
                        <path d="M49.8765432,22.3728395 C48.945679,22.3728395 46.5358025,21.3728395 44.3234568,19.2320988 C42.4634051,17.4444525 41.1461624,15.1677369 40.5234568,12.6641975 L40.217284,10.8641975 C40.1592194,10.3320214 40.1303695,9.79706256 40.1308579,9.2617284 L40.1308579,4.74567901 C40.132179,4.22949666 40.4792317,3.77822697 40.9777778,3.64444444 C43.8961222,2.8575923 46.6962172,1.68424286 49.3037037,0.155555556 C49.4777589,0.0544953488 49.6752781,0.00085865497 49.8765432,0 C50.0798063,0 50.279338,0.0545992087 50.454321,0.158024691 C53.0681119,1.6758179 55.8675481,2.84854344 58.782716,3.64691358 C59.2807837,3.78087969 59.6271703,4.23237854 59.6271703,4.74814815 L59.6271703,9.25679012 C59.6277721,9.78713346 59.5997478,10.317123 59.5432099,10.8444444 L59.2320988,12.6518519 C58.6102046,15.1611115 57.2910946,17.4432316 55.4271605,19.2345679 C53.2222222,21.3728395 50.8148148,22.3728395 49.8765432,22.3728395 Z M42.4148148,9.25432099 C42.3787399,12.3757032 43.6289186,15.3743461 45.8716049,17.545679 C47.6839506,19.3185185 49.5604938,20.0444444 49.8814815,20.0864198 C50.2024691,20.0419753 52.0691358,19.3160494 53.8814815,17.545679 C56.1241678,15.3743461 57.3743465,12.3757032 57.3382716,9.25432099 L57.3382716,5.60987654 C54.745092,4.83498057 52.2433074,3.78194615 49.8765432,2.4691358 C47.5165285,3.79893106 45.0132826,4.85672227 42.4148148,5.62222222 L42.4148148,9.25432099 Z" id="Shape" fill="#0A2448"></path>
                        <path d="M49.1160494,14.6765544 C48.8126525,14.6768009 48.5214867,14.5569613 48.3061728,14.3432099 L45.5135802,11.5580247 C45.2984136,11.3439325 45.1774435,11.0529155 45.1774435,10.7493827 C45.1774435,10.4458499 45.2984136,10.1548329 45.5135802,9.94074074 C45.962057,9.496351 46.6848565,9.496351 47.1333333,9.94074074 L49.108642,11.9160494 L53.1209877,7.92098765 C53.4050343,7.60903483 53.8375457,7.47843754 54.2467725,7.58105567 C54.6559993,7.68367379 54.9757126,8.00289968 55.0789549,8.41196948 C55.1821972,8.82103928 55.0522599,9.25374937 54.7407407,9.5382716 L49.9259259,14.3432099 C49.7112261,14.5578844 49.4196599,14.6778887 49.1160494,14.6765544 L49.1160494,14.6765544 Z" id="Path" fill="#0A2448"></path>
                    </g>
                </g>
            </g>
        </g>
    </g>
</svg>