<?xml version="1.0" encoding="UTF-8"?>
<svg width="60px" height="60px" viewBox="0 0 60 60" version="1.1" xmlns="http://www.w3.org/2000/svg" xmlns:xlink="http://www.w3.org/1999/xlink">
    <title>908C010C-40F2-40F3-843E-15ADDC2B621C@1.00x</title>
    <g id="06_External-Pages" stroke="none" stroke-width="1" fill="none" fill-rule="evenodd">
        <g id="06_Freelancers-Site" transform="translate(-635.000000, -1768.000000)">
            <g id="Your-Talent" transform="translate(206.000000, 1508.000000)">
                <g id="02" transform="translate(428.000000, 202.000000)">
                    <g id="Icons_Pitch-for-projects" transform="translate(1.000000, 58.000000)">
                        <path d="M9.75241935,12.1330645 C10.8200753,12.1332348 11.7391702,11.3791895 11.9476143,10.3320791 C12.1560584,9.28496864 11.5957961,8.23643349 10.6094663,7.82772496 C9.6231365,7.41901642 8.48545093,7.76396767 7.89218258,8.65161729 C7.29891423,9.53926691 7.41529971,10.7223875 8.17016129,11.4774194 C8.59126131,11.8949026 9.15945217,12.1303456 9.75241935,12.1330645 L9.75241935,12.1330645 Z" id="Path" fill="#1371F0" fill-rule="nonzero"></path>
                        <path d="M13.1419355,8.32983871 C13.4238457,8.32986729 13.6984263,8.24003533 13.9258065,8.0733871 C21.5315456,2.53990322 31.4504235,1.31215641 40.1758065,4.82419355 C40.334009,4.88873124 40.5033347,4.92161001 40.6741935,4.92096774 C41.3136605,4.92398736 41.8648471,4.47170621 41.9867291,3.84395471 C42.1086111,3.21620322 41.7667174,2.59052477 41.1725806,2.35403226 C31.5938857,-1.50251042 20.7042714,-0.153993829 12.3556452,5.92258065 C11.8774583,6.25845436 11.6743601,6.86700345 11.8549769,7.42274743 C12.0355937,7.9784914 12.557654,8.35136398 13.1419355,8.34193548 L13.1419355,8.32983871 Z" id="Path" fill="#0A2448" fill-rule="nonzero"></path>
                        <path d="M0.0459677419,30.1137097 C0.0401448796,33.9727233 0.784599596,37.7960652 2.23790323,41.3709677 C2.41682413,41.8117874 2.81732835,42.1236684 3.28854982,42.1891281 C3.75977129,42.2545879 4.23012026,42.0636816 4.52242081,41.6883217 C4.81472136,41.3129618 4.88456609,40.8101745 4.70564516,40.3693548 C1.17396703,31.6450118 2.38540185,21.7167321 7.91129032,14.0975806 C9.9965408,15.0145565 12.4388465,14.2660156 13.6521574,12.3380657 C14.8654683,10.4101158 14.48377,7.8843531 12.7549401,6.40102529 C11.0261102,4.91769748 8.47167734,4.92427366 6.75050771,6.41648321 C5.02933808,7.90869275 4.66064954,10.4363872 5.88387097,12.3580645 C2.07339969,17.4918483 0.0255209654,23.720353 0.0459677419,30.1137097 L0.0459677419,30.1137097 Z M7.83143442,9.89274194 C7.83483949,8.97929124 8.48255497,8.19523792 9.3789497,8.01951047 C10.2753444,7.84378302 11.1711495,8.32524762 11.5191744,9.16980805 C11.8671993,10.0143685 11.5706655,10.9871699 10.8107066,11.4939896 C10.0507478,12.0008093 9.03869279,11.9007111 8.39274194,11.2548387 C8.0313778,10.8938987 7.82928842,10.4034836 7.83143442,9.89274194 L7.83143442,9.89274194 Z" id="Shape" fill="#0A2448" fill-rule="nonzero"></path>
                        <path d="M44.4024194,52.6862903 C42.7539814,53.8514389 42.3609504,56.1316685 43.5241935,57.7814516 C44.0843426,58.575194 44.9368701,59.1139 45.8942196,59.2790542 C46.8515691,59.4442083 47.8353148,59.2222811 48.6290323,58.6620968 C49.9185721,57.744126 50.4760124,56.1039649 50.0129032,54.5903226 C57.4730285,47.8938355 61.0904512,37.9105116 59.6516129,27.9895161 C59.571715,27.4178331 59.1298723,26.964234 58.5604839,26.8693548 C58.4219166,26.8463431 58.2805027,26.8463431 58.1419355,26.8693548 C57.792477,26.9202004 57.477562,27.1078722 57.2665514,27.3910347 C57.0555408,27.6741973 56.9657428,28.0296245 57.0169355,28.3790323 C57.4298879,31.2246512 57.3898768,34.117696 56.8983871,36.9508065 C55.8812867,42.9517365 52.8636228,48.4319642 48.3362903,52.5 C47.1009581,51.7917015 45.5673038,51.862442 44.4024194,52.6814516 L44.4024194,52.6862903 Z" id="Path" fill="#0A2448" fill-rule="nonzero"></path>
                        <circle id="Oval" cx="11.3564516" cy="31.1758065" r="1.9233871"></circle>
                        <path d="M7.01612903,32.6298387 C7.71828316,34.7613249 9.85688694,36.0742481 12.0753778,35.7357928 C14.2938687,35.3973374 15.9436953,33.5064473 15.978337,31.2625548 C16.0129787,29.0186622 14.4223084,27.0777445 12.2153226,26.6709677 C12.2129401,25.0349287 12.4169704,23.4051249 12.8225806,21.8201613 C12.9966647,21.1423666 12.6160087,20.4455545 11.9516129,20.2258065 L11.9516129,20.2258065 C11.6002607,20.1104898 11.2168219,20.1460186 10.8926396,20.3239291 C10.5684573,20.5018396 10.3325548,20.8062039 10.241129,21.1645161 C9.7517009,23.0604042 9.5173761,25.0131109 9.54435484,26.9709677 C7.35588724,27.9103777 6.25568444,30.3729369 7.01612903,32.6298387 L7.01612903,32.6298387 Z M13.2435484,30.7645161 C13.4106517,31.5245636 13.1032972,32.3104126 12.4648855,32.755414 C11.8264738,33.2004153 10.9828182,33.2168714 10.3275385,32.7971045 C9.67225885,32.3773376 9.33449259,31.6040722 9.4718295,30.8380864 C9.60916641,30.0721005 10.1945412,29.464349 10.9548387,29.2983871 C11.9869918,29.0850552 13.0000993,29.7367996 13.233871,30.7645161 L13.2435484,30.7645161 Z" id="Shape" fill="#0A2448" fill-rule="nonzero"></path>
                        <path d="M45.5322581,55.5048387 C45.6255424,54.9652817 46.1383809,54.6033667 46.6780026,54.696276 C47.2176244,54.7891853 47.5798957,55.3017722 47.4873615,55.8414583 C47.3948273,56.3811445 46.8824923,56.743772 46.3427419,56.6516129 C46.083064,56.6072745 45.8516889,56.4614607 45.699645,56.24633 C45.5476012,56.0311994 45.4873783,55.7644236 45.5322581,55.5048387 Z" id="Path" fill="#6AE4B0" fill-rule="nonzero"></path>
                        <path d="M31.5846774,38.066129 C31.5846774,38.066129 35.4556452,35.4048387 36.4233871,35.4048387 C37.391129,35.4048387 39.5685484,35.6467742 41.2620968,36.6145161 C43.3778453,37.89314 44.6645644,40.1908525 44.6493297,42.6629032 C44.6493297,45.566129 43.1975806,47.2596774 41.2620968,47.2596774 L17.0685484,47.2596774 C17.0685484,47.2596774 16.3427419,44.8403226 16.3427419,43.6306452 C16.3427419,42.4209677 16.8266129,37.8241935 17.7943548,37.3403226 C18.7620968,36.8564516 21.9072581,35.6467742 23.358871,35.6467742 C24.8104839,35.6467742 26.2620968,36.8564516 26.9879032,36.8564516 C27.7137097,36.8564516 29.891129,37.5822581 30.6169355,37.5822581 C31.0042903,37.5515896 31.3767993,37.7378442 31.5846774,38.066129 Z" id="Path" fill="#6AE4B0" fill-rule="nonzero"></path>
                        <path d="M39.5637097,34.5556452 C39.5322581,34.5556452 36.1451613,34.7443548 34.916129,30.9266129 C35.6218836,30.3861298 36.2474613,29.7483339 36.7741935,29.0322581 C37.9974925,27.3225797 38.7734845,25.3339444 39.0314516,23.2475806 C39.1177393,23.1459963 39.1879123,23.0317612 39.2395161,22.908871 C39.7486664,21.6904454 40.0094086,20.3826217 40.0064516,19.0620968 C40.0064516,13.9016129 36.0991935,9.70403226 31.2967742,9.70403226 C30.0631867,9.70486054 28.8460349,9.98701471 27.7379032,10.5290323 C27.3284182,10.5665953 26.9233948,10.6427397 26.5282258,10.7564516 C22.5024194,11.9177419 20.2258065,16.7709677 21.4475806,21.5709677 C21.5695497,22.0505353 21.7247637,22.521028 21.9120968,22.9790323 C21.9618439,23.0985313 22.0286693,23.2101786 22.1104839,23.3104839 C22.5677419,26.5766129 24.0967742,29.3080645 26.1943548,30.9120968 C25.1806452,34.7104839 21.5782258,34.5604839 21.5443548,34.5629032 C18.0596905,34.6801619 15.2937485,37.5359489 15.2879032,41.0225806 L15.2879032,45.2419355 C15.2918382,46.8206857 16.5664513,48.1017744 18.1451613,48.1137097 L42.9435484,48.1137097 C44.5294255,48.1123781 45.8150749,46.827811 45.8177419,45.2419355 L45.8177419,41.0153226 C45.8144579,37.5285774 43.0485247,34.6716946 39.5637097,34.5556452 Z M27.2395161,13.2870968 C27.5336508,13.2037667 27.836506,13.15505 28.1419355,13.1419355 C28.3352658,13.1324531 28.5242606,13.0812842 28.6959677,12.9919355 C29.4923991,12.5655945 30.3813154,12.3412886 31.2846774,12.3387097 C34.4540323,12.3387097 37.0596774,15.041129 37.3330645,18.4741935 C36.6531071,18.0450719 35.8653344,17.8177169 35.0612903,17.8185484 L29.0758065,17.8185484 C28.5891317,17.8205556 28.1510919,17.523726 27.9725806,17.0709677 C27.7276951,16.4615031 27.118901,16.0784032 26.4634824,16.1213273 C25.8080637,16.1642515 25.2544347,16.6234798 25.091129,17.2596774 C24.8373344,18.2222329 24.3985221,19.1261533 23.7991935,19.9209677 C23.4048387,16.8459677 24.8274194,13.983871 27.2395161,13.2870968 L27.2395161,13.2870968 Z M24.6967742,22.8629032 C25.628004,21.994286 26.3915141,20.9617842 26.9491935,19.8169355 C27.5783952,20.2379451 28.3187453,20.4619873 29.0758065,20.4604839 L35.0564516,20.4604839 C35.6681628,20.4621608 36.2279617,20.8045712 36.5080645,21.3483871 C36.4862903,24.8129032 35.0129032,27.791129 32.9201613,29.0903226 C32.209266,29.5403577 31.3880352,29.7856387 30.5467742,29.7992067 C27.7185484,29.8064516 25.2290323,26.8016129 24.6967742,22.8629032 Z M34.4516129,35.2016129 C32.1256917,36.8981554 28.9702761,36.8981554 26.6443548,35.2016129 C27.5331052,34.3671555 28.1985398,33.3232551 28.5798387,32.1653226 C29.8673667,32.5589098 31.2431171,32.5589098 32.5306452,32.1653226 C32.9086792,33.3185416 33.5690215,34.3589551 34.4516129,35.1919355 L34.4516129,35.2016129 Z M43.1758065,45.2419355 L43.1758065,45.2419355 C43.1758065,45.3755528 43.0674882,45.483871 42.933871,45.483871 L18.1451613,45.483871 C18.011544,45.483871 17.9032258,45.3755528 17.9032258,45.2419355 L17.9032258,41.0153226 C17.9058917,38.9052748 19.6157587,37.1954078 21.7258065,37.1927419 C21.7572581,37.1927419 23.3467742,37.1008065 24.2903226,36.6822581 C27.8303649,39.909947 33.246248,39.909947 36.7862903,36.6822581 C37.8217742,37.1516129 39.3120968,37.1903226 39.3435484,37.1903226 C41.4535961,37.1929885 43.1634631,38.9028555 43.166129,41.0129032 L43.1758065,45.2419355 Z" id="Shape" fill="#0A2448" fill-rule="nonzero"></path>
                    </g>
                </g>
            </g>
        </g>
    </g>
</svg>