<?xml version="1.0" encoding="UTF-8"?>
<svg width="30px" height="30px" viewBox="0 0 30 30" version="1.1" xmlns="http://www.w3.org/2000/svg" xmlns:xlink="http://www.w3.org/1999/xlink">
    <title>8E14AB1B-7AD3-430E-83E8-E6A5DE556DF9@1.00x</title>
    <g id="06_External-Pages" stroke="none" stroke-width="1" fill="none" fill-rule="evenodd">
        <g id="06_Freelancers-Site" transform="translate(-246.000000, -3078.000000)" fill-rule="nonzero">
            <g id="Group-5" transform="translate(211.000000, 2951.000000)">
                <g id="1" transform="translate(0.000000, 92.000000)">
                    <g id="Icons_How-it-Works" transform="translate(35.000000, 35.000000)">
                        <path d="M9.6,9.36 C9.6,9.36 15.36,10.92 16.56,12.12 C17.76,13.32 20.4,18.6 20.64,20.28 C20.88,21.96 14.88,18.72 14.88,18.72 C14.88,18.72 10.8936,15.2304 10.2468,13.8 C9.6,12.3696 9.6,9.36 9.6,9.36 Z" id="Path" fill="#6AE4B0"></path>
                        <path d="M15,29.892055 C7.89473078,29.8924606 1.77862507,24.8736687 0.392136396,17.9049887 C-0.994352281,10.9363088 2.73494445,3.95867543 9.29928427,1.23943039 C15.8636241,-1.47981466 23.4346903,0.816699713 27.3822128,6.72448416 C31.3297353,12.6322686 30.55424,20.5058719 25.53,25.53 C22.7434805,28.3320498 18.9517158,29.9027694 15,29.892055 Z M15,1.548 C7.57066555,1.548 1.548,7.57066555 1.548,15 C1.548,22.4293345 7.57066555,28.452 15,28.452 C22.4293345,28.452 28.452,22.4293345 28.452,15 C28.4434034,7.57422927 22.4257707,1.55659656 15,1.548 Z" id="Shape" fill="#0A2448"></path>
                        <path d="M15,26.8932 C8.43156701,26.8932 3.1068,21.568433 3.1068,15 C3.1068,8.43156701 8.43156701,3.1068 15,3.1068 C21.568433,3.1068 26.8932,8.43156701 26.8932,15 C26.8859253,21.5654173 21.5654173,26.8859253 15,26.8932 Z M15,4.5468 C9.22685705,4.5468 4.5468,9.22685705 4.5468,15 C4.5468,20.7731429 9.22685705,25.4532 15,25.4532 C20.7731429,25.4532 25.4532,20.7731429 25.4532,15 C25.4465871,9.22959842 20.7704016,4.55341289 15,4.5468 L15,4.5468 Z" id="Shape" fill="#0A2448"></path>
                        <path d="M20.6136,21.3336074 L20.5452,21.3336074 C20.3472,21.3144 15.6624,20.8308 12.4176,17.586 C9.1728,14.3412 8.6892,9.6564 8.67,9.4584 C8.65067283,9.25589825 8.71790847,9.05467046 8.85508594,8.90446113 C8.99226341,8.7542518 9.18658011,8.66910352 9.39,8.67 C9.41278433,8.66880469 9.43561567,8.66880469 9.4584,8.67 C9.6564,8.6892 14.3412,9.1728 17.586,12.4176 C20.8308,15.6624 21.3144,20.3472 21.3336,20.5452 C21.3529272,20.7477018 21.2856915,20.9489295 21.1485141,21.0991389 C21.0113366,21.2493482 20.8170199,21.3345202 20.6136,21.3336074 L20.6136,21.3336074 Z M16.0536,18.444 C17.2194377,19.0364307 18.4586156,19.4718176 19.7388,19.7388 C19.4716408,18.4586649 19.036262,17.2195098 18.444,16.0536 C16.8492,13.026 13.9464,11.556 13.9464,11.556 C12.7805623,10.9635693 11.5413844,10.5281824 10.2612,10.2612 C10.5281824,11.5413844 10.9635693,12.7805623 11.556,13.9464 C13.3908,17.334 16.0536,18.444 16.0536,18.444 Z" id="Shape" fill="#0A2448"></path>
                        <path d="M15,8.1936 C14.602355,8.1936 14.28,7.87124502 14.28,7.4736 L14.28,5.88 C14.28,5.48235498 14.602355,5.16 15,5.16 C15.397645,5.16 15.72,5.48235498 15.72,5.88 L15.72,7.4676 C15.7216,7.65959333 15.64645,7.84427333 15.51125,7.9806 C15.37605,8.11692667 15.192,8.1936 15,8.1936 L15,8.1936 Z" id="Path" fill="#0A2448"></path>
                        <path d="M5.88,15.72 C5.48235498,15.72 5.16,15.397645 5.16,15 C5.16,14.602355 5.48235498,14.28 5.88,14.28 L7.4676,14.28 C7.86524502,14.28 8.1876,14.602355 8.1876,15 C8.1876,15.397645 7.86524502,15.72 7.4676,15.72 L5.88,15.72 Z" id="Path" fill="#0A2448"></path>
                        <path d="M8.5548,22.1652 C8.36372293,22.1659667 8.18036571,22.0898561 8.046,21.954 C7.76524476,21.6728952 7.76524476,21.2175048 8.046,20.9364 L9.168,19.8132 C9.34999109,19.6312089 9.61524889,19.5601333 9.86385334,19.6267467 C10.1124578,19.69336 10.30664,19.8875422 10.3732533,20.1361467 C10.4398667,20.3847511 10.3687911,20.6500089 10.1868,20.832 L9.0636,21.96 C8.92824418,22.0936566 8.7450097,22.1675554 8.5548,22.1652 Z" id="Path" fill="#0A2448"></path>
                        <path d="M15,24.84 C14.602355,24.84 14.28,24.517645 14.28,24.12 L14.28,22.5276 C14.28,22.129955 14.602355,21.8076 15,21.8076 C15.397645,21.8076 15.72,22.129955 15.72,22.5276 L15.72,24.12 C15.72,24.517645 15.397645,24.84 15,24.84 Z" id="Path" fill="#0A2448"></path>
                        <path d="M22.5276,15.72 C22.129955,15.72 21.8076,15.397645 21.8076,15 C21.8076,14.602355 22.129955,14.28 22.5276,14.28 L24.12,14.28 C24.517645,14.28 24.84,14.602355 24.84,15 C24.84,15.397645 24.517645,15.72 24.12,15.72 L22.5276,15.72 Z" id="Path" fill="#0A2448"></path>
                        <path d="M20.322,10.3980002 C20.0304563,10.39823 19.7675496,10.2226212 19.6561083,9.95321707 C19.5446669,9.6838129 19.6066897,9.37379428 19.8132,9.168 L20.9364,8.046 C21.2175048,7.76524476 21.6728952,7.76524476 21.954,8.046 C22.2347552,8.32710484 22.2347552,8.78249516 21.954,9.0636 L20.832,10.1868 C20.6968095,10.322159 20.5133074,10.3981504 20.322,10.3980002 L20.322,10.3980002 Z" id="Path" fill="#0A2448"></path>
                    </g>
                </g>
            </g>
        </g>
    </g>
</svg>