<?xml version="1.0" encoding="UTF-8"?>
<svg width="70px" height="70px" viewBox="0 0 70 70" version="1.1" xmlns="http://www.w3.org/2000/svg" xmlns:xlink="http://www.w3.org/1999/xlink">
    <title>F42EFD10-4882-4E45-B451-B53A2F51CDAD@1.00x</title>
    <g id="06_External-Pages" stroke="none" stroke-width="1" fill="none" fill-rule="evenodd">
        <g id="06.2_Freelancers-Site" transform="translate(-1028.000000, -988.000000)">
            <g id="About" transform="translate(209.000000, 737.000000)">
                <g id="03" transform="translate(818.000000, 251.000000)">
                    <g id="22-–-finance" transform="translate(1.000000, 0.000000)">
                        <rect id="body" x="0" y="0" width="70" height="70"></rect>
                        <g id="icon" transform="translate(2.333333, 3.333333)">
                            <circle id="Oval" fill="#4DD09A" cx="51.3333333" cy="38.6666667" r="4.66666667"></circle>
                            <path d="M51.3333333,17.6666667 L51.3333333,2.81812664 C51.3333333,1.71355714 50.4379028,0.818126635 49.3333333,0.818126635 C49.1475003,0.818126635 48.962574,0.844026473 48.7838911,0.89507874 L4.50916995,13.5449991 C3.22126528,13.9129718 2.33333333,15.0901298 2.33333333,16.4295709 L2.33333333,20.0611671 L2.33333333,20.0611671" id="Path-1102" stroke="#4DD09A" stroke-width="2" stroke-linecap="round"></path>
                            <path d="M2.33333333,38.6666667 L2.33333333,20.6666667 C2.33333333,19.0098124 3.67647908,17.6666667 5.33333333,17.6666667 L60,17.6666667 C61.6568542,17.6666667 63,19.0098124 63,20.6666667 L63,59 C63,60.6568542 61.6568542,62 60,62 L25.6666667,62 L25.6666667,62" id="Path-1103" stroke="#193875" stroke-width="2" stroke-linecap="round"></path>
                            <g id="dop" transform="translate(0.000000, 31.666667)" stroke-linecap="round" stroke-width="2">
                                <circle id="Oval-2" stroke="#193875" cx="16.3333333" cy="16.3333333" r="16.3333333"></circle>
                                <path d="M11.6666667,17.5 L15.0892362,20.9225695 C15.1282886,20.9616219 15.1916051,20.9616219 15.2306575,20.9225695 C15.2327947,20.9204322 15.234834,20.9181992 15.236769,20.9158772 L21,14 L21,14" id="Path-4" stroke="#4DD09A"></path>
                            </g>
                        </g>
                    </g>
                </g>
            </g>
        </g>
    </g>
</svg>