<?xml version="1.0" encoding="UTF-8"?>
<svg width="60px" height="60px" viewBox="0 0 60 60" version="1.1" xmlns="http://www.w3.org/2000/svg" xmlns:xlink="http://www.w3.org/1999/xlink">
    <title>D21FB3FC-CC41-478D-B368-D94110721B56@1.00x</title>
    <g id="06_External-Pages" stroke="none" stroke-width="1" fill="none" fill-rule="evenodd">
        <g id="06_Freelancers-Site" transform="translate(-1027.000000, -1768.000000)" fill-rule="nonzero">
            <g id="Your-Talent" transform="translate(206.000000, 1508.000000)">
                <g id="Icons_Get-Paid" transform="translate(821.000000, 260.000000)">
                    <path d="M2.41492537,18.8328358 C1.10299934,18.8328358 0.0367051164,17.7745757 0.0268656716,16.4626866 L0.0268656716,2.43283582 C0.0383349227,1.12211435 1.10415372,0.0656716418 2.41492537,0.0656716418 L25.161194,0.0656716418 C26.4719657,0.0656716418 27.5377845,1.12211435 27.5492537,2.43283582 L27.5492537,16.4626866 C27.5394143,17.7745757 26.4731201,18.8328358 25.161194,18.8328358 L2.41492537,18.8328358 Z M24.7761194,6.04477612 L24.7761194,2.79701493 L2.7880597,2.79701493 L2.7880597,6.04477612 L24.7761194,6.04477612 Z" id="Shape" fill="#0A2448"></path>
                    <rect id="Rectangle" fill="#FFFFFF" x="2.7880597" y="8.7880597" width="21.9970149" height="7.29850746"></rect>
                    <path d="M29.761194,38.9134328 C29.761194,38.9134328 34.5373134,35.6298507 35.7313433,35.6298507 C36.9253731,35.6298507 39.6119403,35.9283582 41.7014925,37.1223881 C44.3119684,38.6999936 45.899562,41.5349822 45.880765,44.5850746 C45.880765,48.1671642 44.0895522,50.2567164 41.7014925,50.2567164 L11.8507463,50.2567164 C11.8507463,50.2567164 10.9552239,47.2716418 10.9552239,45.7791045 C10.9552239,44.2865672 11.5522388,38.6149254 12.7462687,38.0179104 C13.9402985,37.4208955 17.8208955,35.9283582 19.6119403,35.9283582 C21.4029851,35.9283582 23.1940299,37.4208955 24.0895522,37.4208955 C24.9850746,37.4208955 27.6716418,38.3164179 28.5671642,38.3164179 C29.0450944,38.2785783 29.5047076,38.5083848 29.761194,38.9134328 L29.761194,38.9134328 Z" id="Path" fill="#6AE4B0"></path>
                    <path d="M39.6059701,34.5820896 C39.5671642,34.5820896 35.3880597,34.8179104 33.8716418,30.1044776 C34.7373996,29.434529 35.5041789,28.6456408 36.1492537,27.761194 C37.6581366,25.6526046 38.6155577,23.200047 38.9343284,20.6268657 C39.0391788,20.4992744 39.1255946,20.3575928 39.1910448,20.2059701 C39.819945,18.7028514 40.1416851,17.0890764 40.1373134,15.4597015 C40.1373134,9.09253731 35.3164179,3.91343284 29.3910448,3.91343284 C27.8680465,3.91442041 26.3653089,4.26254101 24.9970149,4.93134328 C24.4918601,4.97826443 23.9921832,5.07220369 23.5044776,5.2119403 C18.5402985,6.64776119 15.7432836,12.6328358 17.2358209,18.5552239 C17.384948,19.1473257 17.5764874,19.7279294 17.8089552,20.2925373 C17.8692984,20.4398576 17.9507479,20.577618 18.0507463,20.7014925 C18.6149254,24.7343284 20.5044776,28.1014925 23.0925373,30.080597 C21.838806,34.7701493 17.3940299,34.5820896 17.3552239,34.5850746 C13.053903,34.7282614 9.63987373,38.2545073 9.6358209,42.558209 L9.6358209,47.761194 C9.63746686,49.7207106 11.2255581,51.3088018 13.1850746,51.3104478 L43.7731343,51.3104478 C45.7326509,51.3088018 47.3207421,49.7207106 47.3223881,47.761194 L47.3223881,42.5552239 C47.316838,38.2532708 43.9054388,34.7283782 39.6059701,34.5820896 Z M24.4,8.35820896 C24.7614539,8.25296307 25.1343108,8.19182255 25.5104478,8.1761194 C25.7501659,8.16590712 25.9846424,8.10270041 26.1970149,7.99104478 C27.179766,7.46559138 28.2766401,7.1898352 29.3910448,7.1880597 C33.2985075,7.1880597 36.5164179,10.5223881 36.8537313,14.7552239 C36.0133142,14.2265704 35.0406235,13.9461457 34.0477612,13.9462687 L26.6656716,13.9462687 C26.3485436,13.944333 26.0405983,13.8395897 25.7880597,13.6477612 C25.5718501,13.4857223 25.4036815,13.2680317 25.3014925,13.0179104 C24.9985986,12.2682494 24.2491839,11.7972575 23.4423315,11.8494656 C22.6354792,11.9016737 21.9530114,12.4653168 21.7492537,13.2477612 C21.43669,14.4356051 20.8952178,15.5509973 20.1552239,16.5313433 C19.6686567,12.7313433 21.4238806,9.20298507 24.4,8.35820896 Z M21.2626866,20.1701493 C22.4123303,19.0990148 23.3544696,17.8249509 24.041791,16.4119403 C24.8173319,16.933058 25.7313196,17.2096459 26.6656716,17.2059701 L34.0298507,17.2059701 C34.7849831,17.2066794 35.4763316,17.6295542 35.8208955,18.3014925 C35.7940299,22.5791045 33.9791045,26.2507463 31.3970149,27.8537313 C30.5202794,28.4098523 29.5067734,28.712561 28.4686567,28.7283582 C24.9910448,28.7223881 21.919403,25.0179104 21.2626866,20.1552239 L21.2626866,20.1701493 Z M33.2955224,35.3940299 C30.4251131,37.4853857 26.5330959,37.4853857 23.6626866,35.3940299 C24.7584676,34.3637986 25.5793649,33.0760161 26.0507463,31.6477612 C27.6386007,32.1315054 29.3345336,32.1315054 30.9223881,31.6477612 C31.3934939,33.0648235 32.2089096,34.342821 33.2955224,35.3671642 L33.2955224,35.3940299 Z M44.0626866,47.761194 L44.0626866,47.761194 C44.0626866,47.9260551 43.9290402,48.0597015 43.7641791,48.0597015 L13.1791045,48.0597015 C13.0142434,48.0597015 12.880597,47.9260551 12.880597,47.761194 L12.880597,42.5552239 C12.8813871,41.3017329 13.3805018,40.0999833 14.267973,39.2147516 C15.1554443,38.32952 16.3584513,37.8334436 17.6119403,37.8358209 C17.6477612,37.8358209 19.6119403,37.7253731 20.7761194,37.2059701 C25.1439328,41.1883924 31.8262165,41.1883924 36.1940299,37.2059701 C37.4716418,37.7850746 39.3104478,37.8328358 39.3492537,37.8328358 C41.9538599,37.8361281 44.0640273,39.9476311 44.0656716,42.5522388 L44.0626866,47.761194 Z" id="Shape" fill="#0A2448"></path>
                    <path d="M34.8029851,59.8776119 C33.4968825,59.8694852 32.4396214,58.813554 32.4298507,57.5074627 L32.4298507,43.4776119 C32.4412441,42.1726868 33.4980354,41.1185541 34.8029851,41.1104478 L57.5492537,41.1104478 C58.8542034,41.1185541 59.9109947,42.1726868 59.9223881,43.4776119 L59.9223881,57.5074627 C59.9126174,58.813554 58.8553563,59.8694852 57.5492537,59.8776119 L34.8029851,59.8776119 Z M57.1731343,47.0895522 L57.1731343,43.841791 L35.1761194,43.841791 L35.1761194,47.0895522 L57.1731343,47.0895522 Z" id="Shape" fill="#0A2448"></path>
                    <rect id="Rectangle" fill="#1371F0" x="35.1761194" y="49.8328358" width="21.9970149" height="7.29850746"></rect>
                    <rect id="Rectangle" fill="#FFFFFF" x="35.1761194" y="43.841791" width="21.9970149" height="3.24776119"></rect>
                    <path d="M24.4,8.35820896 C24.7614539,8.25296307 25.1343108,8.19182255 25.5104478,8.1761194 C25.7501659,8.16590712 25.9846424,8.10270041 26.1970149,7.99104478 C27.179766,7.46559138 28.2766401,7.1898352 29.3910448,7.1880597 C33.2985075,7.1880597 36.5164179,10.5223881 36.8537313,14.7552239 C36.0133142,14.2265704 35.0406235,13.9461457 34.0477612,13.9462687 L26.6656716,13.9462687 C26.3485436,13.944333 26.0405983,13.8395897 25.7880597,13.6477612 C25.5718501,13.4857223 25.4036815,13.2680317 25.3014925,13.0179104 C24.9985986,12.2682494 24.2491839,11.7972575 23.4423315,11.8494656 C22.6354792,11.9016737 21.9530114,12.4653168 21.7492537,13.2477612 C21.43669,14.4356051 20.8952178,15.5509973 20.1552239,16.5313433 C19.6686567,12.7313433 21.4238806,9.20298507 24.4,8.35820896 Z" id="Path" fill="#FFFFFF"></path>
                    <path d="M21.2626866,20.1552239 C22.4123303,19.0840894 23.3544696,17.8100256 24.041791,16.3970149 C24.8173319,16.9181327 25.7313196,17.1947205 26.6656716,17.1910448 L34.0298507,17.1910448 C34.7849831,17.191754 35.4763316,17.6146289 35.8208955,18.2865672 C35.7940299,22.5641791 33.9791045,26.2358209 31.3970149,27.838806 C30.5202794,28.394927 29.5067734,28.6976357 28.4686567,28.713449 C24.9910448,28.7223881 21.919403,25.0179104 21.2626866,20.1552239 Z" id="Path" fill="#FFFFFF"></path>
                </g>
            </g>
        </g>
    </g>
</svg>