<?xml version="1.0" encoding="UTF-8"?>
<svg width="30px" height="30px" viewBox="0 0 30 30" version="1.1" xmlns="http://www.w3.org/2000/svg" xmlns:xlink="http://www.w3.org/1999/xlink">
    <title>6398DB6D-33E5-400F-A865-80E0EB43370A@1.00x</title>
    <g id="06_External-Pages" stroke="none" stroke-width="1" fill="none" fill-rule="evenodd">
        <g id="06_Freelancers-Site" transform="translate(-646.000000, -3078.000000)" fill-rule="nonzero">
            <g id="Group-5" transform="translate(211.000000, 2951.000000)">
                <g id="1-copy-3" transform="translate(400.000000, 92.000000)">
                    <g id="Icons_Categories" transform="translate(35.000000, 35.000000)">
                        <path d="M3.3996,13.9608 C1.53394695,13.9588171 0.0218452642,12.4472522 0.0192,10.5816 L0.0192,3.426 C0.0218452642,1.56034777 1.53394695,0.0487828631 3.3996,0.0468 L10.56,0.0468 C12.4256531,0.0487828631 13.9377547,1.56034777 13.9404,3.426 L13.9404,10.5816 C13.9377547,12.4472522 12.4256531,13.9588171 10.56,13.9608 L3.3996,13.9608 Z M3.3996,1.4928 C2.33200273,1.49346105 1.46652354,2.35840335 1.4652,3.426 L1.4652,10.5816 C1.46652234,11.6493914 2.33180859,12.5146777 3.3996,12.516 L10.56,12.516 C11.6277914,12.5146777 12.4930777,11.6493914 12.4944,10.5816 L12.4944,3.426 C12.4930765,2.35840335 11.6275973,1.49346105 10.56,1.4928 L3.3996,1.4928 Z" id="Shape" fill="#0A2448"></path>
                        <path d="M3.2832,10.1532 C2.88555498,10.1532 2.5632,9.83084502 2.5632,9.4332 L2.5632,8.0724 C2.5632,7.67475498 2.88555498,7.3524 3.2832,7.3524 C3.68084502,7.3524 4.00320401,7.67475498 4.00320401,8.0724 L4.00320401,9.4308 C4.00383791,9.62217136 3.92826269,9.80592335 3.79316729,9.94146906 C3.6580719,10.0770148 3.47457243,10.1532 3.2832,10.1532 L3.2832,10.1532 Z" id="Path" fill="#0A2448"></path>
                        <path d="M3.2832,6.60840412 C2.88555498,6.60840412 2.5632,6.28604502 2.5632,5.8884 L2.5632,4.32 C2.5645233,3.3663949 3.33759421,2.59386085 4.2912,2.5932 L5.5968,2.5932 C5.99610187,2.5932 6.3198,2.91689813 6.3198,3.3162 C6.3198,3.71550187 5.99610187,4.0392 5.5968,4.0392 L4.2876,4.0392 C4.13232313,4.03919859 4.00626075,4.16472453 4.0056,4.32 L4.0056,5.892 C4.00361632,6.28917659 3.68037932,6.60972889 3.2832,6.60840412 L3.2832,6.60840412 Z" id="Path" fill="#0A2448"></path>
                        <path d="M19.41,13.9608 C17.5445419,13.9588158 16.0327842,12.4470581 16.0308,10.5816 L16.0308,3.426 C16.0327842,1.56054187 17.5445419,0.0487841798 19.41,0.0468 L26.5656,0.0468 C28.4310581,0.0487841798 29.9428158,1.56054187 29.9448,3.426 L29.9448,10.5816 C29.9428158,12.4470581 28.4310581,13.9588158 26.5656,13.9608 L19.41,13.9608 Z M19.41,1.4928 C18.3428713,1.49412234 17.4781223,2.35887133 17.4768,3.426 L17.4768,10.5816 C17.4774611,11.6491973 18.3424034,12.5146765 19.41,12.516 L26.5656,12.516 C27.6333914,12.5146777 28.4986777,11.6493914 28.5,10.5816 L28.5,3.426 C28.4986765,2.35840335 27.6331973,1.49346105 26.5656,1.4928 L19.41,1.4928 Z" id="Shape" fill="#0A2448"></path>
                        <path d="M3.3996,29.8308 C1.53394695,29.8288171 0.0218452642,28.3172522 0.0192,26.4516 L0.0192,19.296 C0.0218437832,17.4301528 1.53375282,15.9182438 3.3996,15.9156 L10.56,15.9156 C12.4258472,15.9182438 13.9377562,17.4301528 13.9404,19.296 L13.9404,26.4516 C13.9377547,28.3172522 12.4256531,29.8288171 10.56,29.8308 L3.3996,29.8308 Z M3.3996,17.3616 C2.33180859,17.3629223 1.46652234,18.2282086 1.4652,19.296 L1.4652,26.4516 C1.46652354,27.5191966 2.33200273,28.3841389 3.3996,28.3848 L10.56,28.3848 C11.6275973,28.3841389 12.4930765,27.5191966 12.4944,26.4516 L12.4944,19.296 C12.4930777,18.2282086 11.6277914,17.3629223 10.56,17.3616 L3.3996,17.3616 Z" id="Shape" fill="#0A2448"></path>
                        <path d="M19.41,29.8308 C17.5445419,29.8288158 16.0327842,28.3170581 16.0308,26.4516 L16.0308,19.296 C16.0327829,17.4303469 17.5443478,15.9182453 19.41,15.9156 L26.5656,15.9156 C28.4312522,15.9182453 29.9428171,17.4303469 29.9448,19.296 L29.9448,26.4516 C29.9428158,28.3170581 28.4310581,29.8288158 26.5656,29.8308 L19.41,29.8308 Z" id="Path" fill="#0A2448"></path>
                        <rect id="Rectangle" fill="#6AE4B0" x="17.4768" y="17.3616" width="11.0232" height="11.0232" rx="5.5116"></rect>
                    </g>
                </g>
            </g>
        </g>
    </g>
</svg>