<?xml version="1.0" encoding="UTF-8"?>
<svg width="30px" height="27px" viewBox="0 0 30 27" version="1.1" xmlns="http://www.w3.org/2000/svg" xmlns:xlink="http://www.w3.org/1999/xlink">
    <title>4F963DD0-0363-4EBC-ADB0-8FA87FE55729@1.00x</title>
    <g id="06_External-Pages" stroke="none" stroke-width="1" fill="none" fill-rule="evenodd">
        <g id="06_Freelancers-Site" transform="translate(-1046.000000, -3080.000000)" fill-rule="nonzero">
            <g id="Group-5" transform="translate(211.000000, 2951.000000)">
                <g id="1-copy-4" transform="translate(800.000000, 92.000000)">
                    <g id="Icons_Financials" transform="translate(35.000000, 37.000000)">
                        <path d="M21,11.4642857 C21,11.4642857 25.3928571,14.1428571 26.5714286,14.1428571 C27.75,14.1428571 27,15.75 27,15.75 C27,15.75 26.8928571,20.7857143 25.8214286,22.2857143 C24.75,23.7857143 20.7857143,26.3571429 20.7857143,26.3571429 L17.5714286,24.75 L15.1071429,20.8928571 L14.3571429,15.6428571 L14.3571429,14.25 L21,11.4642857 Z" id="Path" fill="#6AE4B0"></path>
                        <path d="M22.1882143,23.5007147 C21.9959665,23.5009369 21.8132089,23.4171893 21.6878571,23.2714286 C21.4535538,22.9958734 21.4866323,22.5826321 21.7617857,22.3478571 C21.9590327,22.1828372 22.1471672,22.0072212 22.3253571,21.8217857 C22.5394305,21.5930824 22.7367282,21.3492354 22.9157143,21.0921429 C23.0670573,20.8737997 23.3350326,20.7681335 23.5946669,20.8244228 C23.8543011,20.8807121 24.0544555,21.0878698 24.1017857,21.3492857 C24.1326835,21.5202553 24.0941207,21.6964876 23.9946429,21.8389286 C23.7786415,22.1469842 23.5412719,22.4394895 23.2842857,22.7142857 C23.0722092,22.9369137 22.8479355,23.1475951 22.6125,23.3453571 C22.4938485,23.4456105 22.3435491,23.5006443 22.1882143,23.5007147 L22.1882143,23.5007147 Z" id="Path" fill="#0A2448"></path>
                        <path d="M20.6957143,24.5025 C20.435927,24.5025849 20.2004194,24.3497778 20.0946429,24.1125 C20.0244809,23.953526 20.0204027,23.7731793 20.0833068,23.6111962 C20.1462109,23.4492131 20.2709356,23.3188854 20.43,23.2489286 L20.4482143,23.2403571 C20.5350012,23.1995566 20.629817,23.1786898 20.7257143,23.1792733 C20.9797172,23.1799927 21.2108524,23.3261701 21.3203571,23.5553571 C21.3948165,23.7134751 21.4028449,23.8948284 21.3426491,24.0589074 C21.2824532,24.2229865 21.1590484,24.3561207 21,24.4285714 L20.9560714,24.4489286 C20.8737636,24.4840878 20.7852169,24.5023073 20.6957143,24.5025 Z" id="Path" fill="#0A2448"></path>
                        <path d="M20.6957143,26.9046429 C20.0185714,26.9046429 18.2764286,26.1257143 16.7635714,24.6621429 C15.4284796,23.3791284 14.4832163,21.7448813 14.0367857,19.9478571 L1.845,19.9478571 C0.84604861,19.9484523 0.0350964101,19.1403758 0.0321428571,18.1414286 L0.0321428571,1.90178571 C0.0350964101,0.902838513 0.84604861,0.0947620305 1.845,0.0953568144 L28.155,0.0953568144 C29.1539514,0.0947620305 29.9649036,0.902838513 29.9678571,1.90178571 L29.9678571,18.1435714 C29.9649036,19.1425186 29.1539514,19.9505951 28.155,19.95 L27.3535714,19.95 C26.9075778,21.7472007 25.9622484,23.381562 24.6267857,24.6642857 C23.1139286,26.1257143 21.3717857,26.9046429 20.6957143,26.9046429 Z M15.0632143,17.4996429 C15.0632143,20.5275 16.4657143,22.5353571 17.6421429,23.6871429 C19.0264286,25.0414286 20.4589286,25.5803571 20.7,25.5964286 C20.9314286,25.5803571 22.3639286,25.0414286 23.7482143,23.6871429 C24.9267857,22.5353571 26.3271429,20.5275 26.3271429,17.4996429 L26.3271429,14.7021429 C24.3668898,14.1244359 22.4778639,13.3279973 20.6957143,12.3278571 C18.9176405,13.3370649 17.0271913,14.133952 15.0632143,14.7021429 L15.0632143,17.4996429 Z M1.34892857,18.1425 C1.34921243,18.2746347 1.40197513,18.4012448 1.49560943,18.4944772 C1.58924374,18.5877097 1.71607955,18.6399273 1.84821429,18.6396429 L13.8096429,18.6396429 C13.7696645,18.2605996 13.7496369,17.8797171 13.7496429,17.4985714 L13.7496429,14.2060714 C13.750471,13.9106354 13.9487662,13.6522373 14.2339286,13.575 C16.3829003,12.9957063 18.444486,12.1308565 20.3635714,11.0035714 C20.5687706,10.8850996 20.8215865,10.8850996 21.0267857,11.0035714 C22.949839,12.1229112 25.0103452,12.9873082 27.1564286,13.575 C27.4415909,13.6522373 27.6398862,13.9106354 27.6407143,14.2060714 L27.6407143,17.4996429 C27.6407202,17.8807885 27.6206926,18.2616711 27.5807143,18.6407154 L28.155,18.6407154 C28.2871347,18.6409988 28.4139705,18.5887811 28.5076049,18.4955487 C28.6012392,18.4023162 28.6540019,18.2757062 28.6542857,18.1435714 L28.6542857,4.88142857 L1.34571429,4.88142857 L1.34892857,18.1425 Z M28.6575,3.57107143 L28.6575,1.90178571 C28.6569092,1.62645634 28.4335443,1.40357143 28.1582143,1.40357143 L1.845,1.40357143 C1.56966999,1.40357143 1.34630512,1.62645634 1.34571429,1.90178571 L1.34571429,3.57214286 L28.6575,3.57107143 Z" id="Shape" fill="#0A2448"></path>
                        <path d="M7.0875,17.6325071 C6.73886043,17.6325808 6.3935287,17.5648973 6.07071429,17.4332143 C4.95211816,17.8844053 3.66993211,17.5323063 2.93863748,16.5731197 C2.20734285,15.6139332 2.20734285,14.2842811 2.93863748,13.3250945 C3.66993211,12.365908 4.95211816,12.013809 6.07071429,12.465 C7.07492841,12.0512087 8.22952773,12.2831758 8.99600325,13.0527111 C9.76247877,13.8222463 9.98984412,14.9777606 9.57205534,15.9803182 C9.15426655,16.9828758 8.17362295,17.6349851 7.0875,17.6325071 L7.0875,17.6325071 Z M5.05178571,13.575 C4.29273209,13.5761835 3.6783014,14.1923727 3.67928611,14.9514266 C3.68027318,15.7104805 4.29630245,16.3250716 5.05535658,16.3242841 C5.81441072,16.323495 6.42916213,15.7076257 6.42857185,14.9485714 C6.42621122,14.1896941 5.81066648,13.5755864 5.05178571,13.575 L5.05178571,13.575 Z M7.38321429,13.6060714 C7.86618323,14.4359153 7.86618323,15.4612276 7.38321429,16.2910714 C8.01524151,16.1543071 8.46628232,15.5952266 8.46628232,14.9485714 C8.46628232,14.3019163 8.01524151,13.7428357 7.38321429,13.6060714 L7.38321429,13.6060714 Z" id="Shape" fill="#0A2448"></path>
                        <path d="M3.01607143,10.0028571 C2.65452216,10.0028571 2.36142857,9.70976355 2.36142857,9.34821429 C2.36142857,8.98666502 2.65452216,8.69357143 3.01607143,8.69357143 L6.00857143,8.69357143 C6.3701207,8.69357143 6.66321429,8.98666502 6.66321429,9.34821429 C6.66321429,9.70976355 6.3701207,10.0028571 6.00857143,10.0028571 L3.01607143,10.0028571 Z" id="Path" fill="#0A2448"></path>
                        <path d="M7.70035714,10.0028571 C7.33880788,10.0028571 7.04571429,9.70976355 7.04571429,9.34821429 C7.04571429,8.98666502 7.33880788,8.69357143 7.70035714,8.69357143 L7.72821429,8.69357143 C8.08976355,8.69357143 8.38285714,8.98666502 8.38285714,9.34821429 C8.38285714,9.70976355 8.08976355,10.0028571 7.72821429,10.0028571 L7.70035714,10.0028571 Z" id="Path" fill="#0A2448"></path>
                        <path d="M19.9553571,20.7407209 C19.7809552,20.7414986 19.6134976,20.672432 19.4903571,20.5489286 L17.4492857,18.5132143 C17.2082571,18.2546502 17.2155619,17.8515691 17.4658009,17.6019081 C17.7160399,17.352247 18.1191368,17.3458742 18.3771429,17.5875 L19.9553571,19.1582143 L23.0132143,16.1121429 C23.200898,15.9248512 23.4827897,15.8687811 23.7278591,15.9699953 C23.9729285,16.0712094 24.1331026,16.3098535 24.1339396,16.575 C24.134945,16.7490303 24.065359,16.9160368 23.9410714,17.0378571 L20.4192857,20.5467857 C20.2968289,20.6709122 20.1297218,20.7407209 19.9553571,20.7407209 Z" id="Path" fill="#0A2448"></path>
                    </g>
                </g>
            </g>
        </g>
    </g>
</svg>