<?xml version="1.0" encoding="UTF-8"?>
<svg width="30px" height="25px" viewBox="0 0 30 25" version="1.1" xmlns="http://www.w3.org/2000/svg" xmlns:xlink="http://www.w3.org/1999/xlink">
    <title>4F6FC04C-6389-4FCB-85CC-D77C26584276@1.00x</title>
    <g id="06_External-Pages" stroke="none" stroke-width="1" fill="none" fill-rule="evenodd">
        <g id="06.3_Freelancers-Site" transform="translate(-246.000000, -3152.000000)" fill-rule="nonzero">
            <g id="Group-5" transform="translate(211.000000, 3036.000000)">
                <g id="1" transform="translate(0.000000, 78.000000)">
                    <g id="Icons_About-us" transform="translate(35.000000, 38.000000)">
                        <path d="M8.15096525,23.5644948 C7.97619068,23.5653554 7.80310458,23.5302651 7.64247104,23.46139 C6.16694182,22.8631961 4.81660246,21.9937457 3.66138996,20.8980695 C2.52397253,19.8214218 1.61104315,18.5301719 0.975289575,17.0988417 C0.320388102,15.6206199 -0.0120873207,14.0198416 -3.90957882e-15,12.4030888 L-3.90957882e-15,2.02239382 C-0.000576596797,1.38106247 0.345607268,0.789528142 0.90503768,0.475929908 C1.46446809,0.162331675 2.14972579,0.175673888 2.6965251,0.510810811 L15.1320463,8.11621622 C15.8788707,8.57647116 16.33488,9.38992862 16.3378378,10.2671815 L16.3378378,12.4030888 C16.3471268,14.0194437 16.0151831,15.6195622 15.3637066,17.0988417 C14.7227235,18.5281202 13.8095967,19.8189298 12.6752896,20.8992278 C11.5090094,21.9984595 10.146305,22.8684213 8.65830116,23.4637066 C8.49741561,23.5301817 8.32504311,23.5644948 8.15096525,23.5644948 L8.15096525,23.5644948 Z M1.78030888,1.40617761 C1.67393474,1.4072029 1.56954475,1.43509336 1.47683398,1.48725869 C1.28094141,1.59350213 1.16006993,1.79956348 1.16293436,2.02239382 L1.16293436,12.4030888 C1.15151209,13.8567932 1.44920965,15.2963227 2.03629344,16.6262548 C2.61256683,17.9199802 3.43927104,19.0868141 4.46872587,20.0594595 C5.52092908,21.0572163 6.75112314,21.8485324 8.0953668,22.392278 C8.13499833,22.4089459 8.17967348,22.4089459 8.21930502,22.392278 L8.23783784,22.3841699 C9.58830306,21.8437227 10.8252036,21.0543539 11.8841699,20.0571429 C12.9104907,19.0808847 13.7367036,17.9139574 14.3166023,16.6216216 C14.9015122,15.2914023 15.199116,13.8527206 15.1899614,12.3996139 L15.1899614,10.2671815 C15.1867308,9.79449734 14.9403042,9.35679469 14.5378378,9.10888031 L2.09305019,1.4988417 C1.99810267,1.43866744 1.88808492,1.40654546 1.77567568,1.40617761 L1.78030888,1.40617761 Z" id="Shape" fill="#0A2448"></path>
                        <path d="M12.4888031,24.4044603 C12.146616,24.4067464 11.8422021,24.1873853 11.7362963,23.8619899 C11.6303906,23.5365944 11.747376,23.1800814 12.0254826,22.980695 C12.5479298,22.6055156 13.0433592,22.194077 13.5081081,21.7494208 C14.759426,20.5442143 15.7679901,19.1102053 16.4791506,17.5250965 C17.2009478,15.9142501 17.5717063,14.1682498 17.5667954,12.4030888 L17.5667954,1.45366795 C17.5668478,0.927965851 17.8507281,0.44325221 18.3092056,0.186034121 C18.767683,-0.0711839686 19.3293128,-0.0608241249 19.7779923,0.213127413 L23.8818533,2.71969112 C24.6289727,3.18036057 25.0853297,3.99409506 25.0888031,4.87181467 L25.0888031,12.4007722 C25.0990203,14.0173393 24.7666256,15.6177289 24.1135135,17.0965251 C23.4774067,18.5283781 22.5649969,19.8206306 21.4285714,20.8992278 C20.261721,21.998581 18.8986905,22.868893 17.4104247,23.4648649 C15.8465141,24.094835 14.1747999,24.4139125 12.4888031,24.4044603 L12.4888031,24.4044603 Z M19.0239382,1.15816422 C18.9724937,1.15865605 18.9219438,1.17179105 18.876834,1.1965251 C18.7828221,1.24824246 18.724938,1.34753611 18.7262548,1.45482625 L18.7262548,12.4042471 C18.7315361,14.3328029 18.3260156,16.2403683 17.5366795,18 C16.7651521,19.7214886 15.6700058,21.2786805 14.3108108,22.5868726 C14.0915058,22.7969112 13.8656371,23.0003861 13.6332046,23.1972973 C16.2505598,22.9632511 18.7142581,21.8598469 20.6316602,20.0629344 C21.6577619,19.0889134 22.4819452,17.9223043 23.0571429,16.6297297 C23.6439087,15.2992476 23.941966,13.8594929 23.9316602,12.4054054 L23.9316602,4.87644788 C23.9331558,4.40004051 23.6870981,3.95704897 23.2818533,3.70656371 L19.1791506,1.1988417 C19.1323889,1.17068182 19.0784979,1.15660582 19.0239382,1.15816422 Z" id="Shape" fill="#0A2448"></path>
                        <path d="M19.0239382,1.15816422 C18.9724937,1.15865605 18.9219438,1.17179105 18.876834,1.1965251 C18.7828221,1.24824246 18.724938,1.34753611 18.7262548,1.45482625 L18.7262548,12.4042471 C18.7315361,14.3328029 18.3260156,16.2403683 17.5366795,18 C16.7651521,19.7214886 15.6700058,21.2786805 14.3108108,22.5868726 C14.0915058,22.7969112 13.8656371,23.0003861 13.6332046,23.1972973 C16.2505598,22.9632511 18.7142581,21.8598469 20.6316602,20.0629344 C21.6577619,19.0889134 22.4819452,17.9223043 23.0571429,16.6297297 C23.6439087,15.2992476 23.941966,13.8594929 23.9316602,12.4054054 L23.9316602,4.87644788 C23.9331558,4.40004051 23.6870981,3.95704897 23.2818533,3.70656371 L19.1791506,1.1988417 C19.1323889,1.17068182 19.0784979,1.15660582 19.0239382,1.15816422 Z" id="Path" fill="#6AE4B0"></path>
                        <path d="M29.9003861,14.0779923 C29.7984556,13.4455598 29.5528958,12.7853282 29.123166,12.0011583 C28.9610039,11.7046332 28.4362934,11.4764479 28.2046332,11.4509653 C28.0746169,11.4365348 27.9436203,11.4676465 27.8339768,11.5389961 C27.757529,11.2146718 27.6023166,10.8196911 27.3277992,10.1907336 C26.9803089,9.37992278 26.5169884,8.87837838 25.9482625,8.68494208 C25.6875055,8.59616659 25.4083227,8.57582613 25.1374517,8.62586873 C25.1200772,8.44285714 25.1061776,8.27142857 25.0980695,8.11737452 C25.0955007,8.00340553 25.057888,7.89299408 24.9903475,7.8011583 C24.9434449,7.73711038 24.8834227,7.68380126 24.8142857,7.64478764 C24.78644,7.6282338 24.756935,7.61464597 24.7262548,7.6042471 C23.7532819,7.22664093 22.8903475,7.42702703 22.1594595,8.196139 C21.4644788,8.92471042 21.4204633,10.1305019 21.3706564,11.4057915 C21.3312741,12.4019305 20.9305019,13.9853282 20.5679537,15.1355212 C20.4393822,15.5420849 20.1776062,15.7517375 20.0409266,15.7656371 C19.9888031,15.7714286 19.930888,15.719305 19.8718147,15.6138996 C19.8227424,15.5225337 19.7786622,15.4285733 19.7397683,15.3324324 C19.6863738,15.1943194 19.6399827,15.0535999 19.6007722,14.9108108 C19.5209091,14.6136487 19.4130922,14.3247148 19.2787645,14.0478764 C18.9185328,13.3528958 18.5281853,12.8664093 18.0868726,12.5640927 C17.7246471,12.3347013 17.3014302,12.2204166 16.872973,12.2362934 C16.4998647,12.246857 16.1472124,12.4091691 15.8965251,12.6857143 C15.5420849,13.0714286 15.3486486,13.7050193 15.3810811,14.3779923 C15.3996139,14.7602317 15.6127413,15.480695 15.742471,15.7888031 C16.007722,16.4119691 16.2057915,16.930888 16.3702703,17.3895753 C16.7942085,18.5328185 17.1602317,19.5208494 17.9583012,20.6895753 C18.0840149,20.8668022 18.2217931,21.0351547 18.3706564,21.1934363 C18.7088803,21.5698842 19.092278,21.9972973 19.13861,23.0223938 C19.1380328,23.0328105 19.1380328,23.0432512 19.13861,23.053668 C19.13861,23.7972973 19.7073359,24.4030888 20.4069498,24.4030888 L26.2934363,24.4030888 C26.3221012,24.4030888 26.3507298,24.4010327 26.3791506,24.3972973 C26.8814405,24.3548491 27.3108046,24.0187261 27.4725869,23.5413127 C27.7042471,22.8938224 27.9498069,22.2196911 28.1861004,21.53861 C28.4027027,20.915444 28.6401544,20.2169884 28.8926641,19.4629344 C29.6976834,17.0733591 30.1401544,15.6451737 29.9003861,14.0779923 Z M27.8258687,19.1050193 C27.5745174,19.8555985 27.3382239,20.5494208 27.1227799,21.169112 C26.8911197,21.8444015 26.6513514,22.5127413 26.4162162,23.1555985 C26.3872587,23.2355212 26.3351351,23.2714286 26.3003861,23.2714286 L26.2378378,23.2714286 L20.4104247,23.2714286 C20.353668,23.2714286 20.2714286,23.1857143 20.2714286,23.0455598 C20.2714286,23.0281853 20.2714286,23.0108108 20.2714286,22.9945946 C20.2123552,21.5478764 19.6111969,20.8795367 19.2138996,20.4370656 C19.0987364,20.3154624 18.991929,20.18621 18.8942085,20.0501931 C18.1737452,18.996139 17.8517375,18.1135135 17.4324324,16.9957529 C17.2586873,16.5243243 17.0606178,15.9915058 16.7837838,15.3428571 C16.6557866,15.0138347 16.5648774,14.6715655 16.5127413,14.3223938 C16.4953668,13.9610039 16.5833977,13.6088803 16.7316602,13.4478764 C16.7765589,13.393233 16.8439591,13.3620924 16.9146718,13.3633205 L16.9471042,13.3633205 C17.1231998,13.3613137 17.296673,13.4060809 17.4498069,13.4930502 C17.734749,13.6888031 18.0069498,14.0409266 18.2803089,14.5667954 C18.380316,14.7815748 18.4609451,15.0048552 18.5212355,15.2339768 C18.5756757,15.4135135 18.6312741,15.5988417 18.6996139,15.7644788 C18.7547313,15.8985978 18.8169824,16.029673 18.8861004,16.1571429 C19.1710425,16.6737452 19.6332046,16.9401544 20.1602317,16.8880309 C20.8065637,16.8243243 21.4065637,16.2555985 21.6532819,15.4737452 C21.8397683,14.8818533 22.4525097,12.8432432 22.5069498,11.4486486 C22.546332,10.43861 22.5880309,9.39266409 22.9864865,8.97220077 C23.3119691,8.62471042 23.6235521,8.5007722 24.0057915,8.56447876 C24.0289575,8.82857143 24.0602317,9.11467181 24.0915058,9.41235521 C24.2073359,10.4397683 24.3393822,11.7185328 24.1644788,12.5027027 C23.8644788,13.8555985 23.5969112,15.034749 23.3745174,15.769112 C23.3044654,15.9646247 23.3475113,16.1828163 23.486568,16.337075 C23.6256247,16.4913337 23.8381971,16.5567054 24.0399042,16.5072407 C24.2416113,16.457776 24.3998232,16.3014767 24.4517375,16.1003861 C24.6833977,15.3266409 24.9474903,14.1752896 25.2625483,12.7505792 C25.4490347,11.9119691 25.3656371,10.8011583 25.2625483,9.75868726 C25.3677303,9.72311566 25.4816906,9.72311566 25.5868726,9.75868726 C25.8301158,9.84208494 26.0814672,10.1559846 26.2945946,10.6447876 C26.8181467,11.8494208 26.8111969,11.9027027 26.7196911,12.5525097 C26.7046332,12.6567568 26.6837838,12.7760618 26.6559846,12.9185328 C26.5795367,13.3019305 26.5123552,13.6749035 26.446332,14.0351351 C26.3202812,14.8090839 26.153251,15.5757989 25.9459459,16.3320463 C25.8718114,16.6253944 26.041823,16.9250997 26.3316503,17.0119858 C26.6214775,17.0988719 26.9283277,16.9421231 27.0277992,16.6563707 C27.2469744,15.860607 27.4232897,15.0536553 27.5559846,14.2389961 C27.6208494,13.8833977 27.6880309,13.5150579 27.7633205,13.13861 C27.7957529,12.9752896 27.8200772,12.8351351 27.8374517,12.7100386 C27.8467181,12.6382239 27.8559846,12.5722008 27.8640927,12.5073359 C27.9211887,12.5407561 27.9840551,12.5631522 28.0494208,12.5733591 C28.095781,12.5924592 28.1406876,12.6149125 28.1837838,12.6405405 C28.5173745,13.2660232 28.7096525,13.7837838 28.7861004,14.2621622 C28.9841699,15.5583012 28.5718147,16.8810811 27.8258687,19.1050193 L27.8258687,19.1050193 Z" id="Shape" fill="#0A2448"></path>
                        <path d="M27.8258687,19.1050193 C27.5745174,19.8555985 27.3382239,20.5494208 27.1227799,21.169112 C26.8911197,21.8444015 26.6513514,22.5127413 26.4162162,23.1555985 C26.3872587,23.2355212 26.3351351,23.2714286 26.3003861,23.2714286 L26.2378378,23.2714286 L20.4104247,23.2714286 C20.353668,23.2714286 20.2714286,23.1857143 20.2714286,23.0455598 C20.2714286,23.0281853 20.2714286,23.0108108 20.2714286,22.9945946 C20.2123552,21.5478764 19.6111969,20.8795367 19.2138996,20.4370656 C19.0987364,20.3154624 18.991929,20.18621 18.8942085,20.0501931 C18.1737452,18.996139 17.8517375,18.1135135 17.4324324,16.9957529 C17.2586873,16.5243243 17.0606178,15.9915058 16.7837838,15.3428571 C16.6557866,15.0138347 16.5648774,14.6715655 16.5127413,14.3223938 C16.4953668,13.9610039 16.5833977,13.6088803 16.7316602,13.4478764 C16.7765589,13.393233 16.8439591,13.3620924 16.9146718,13.3633205 L16.9471042,13.3633205 C17.1231998,13.3613137 17.296673,13.4060809 17.4498069,13.4930502 C17.734749,13.6888031 18.0069498,14.0409266 18.2803089,14.5667954 C18.380316,14.7815748 18.4609451,15.0048552 18.5212355,15.2339768 C18.5756757,15.4135135 18.6312741,15.5988417 18.6996139,15.7644788 C18.7547313,15.8985978 18.8169824,16.029673 18.8861004,16.1571429 C19.1710425,16.6737452 19.6332046,16.9401544 20.1602317,16.8880309 C20.8065637,16.8243243 21.4065637,16.2555985 21.6532819,15.4737452 C21.8397683,14.8818533 22.4525097,12.8432432 22.5069498,11.4486486 C22.546332,10.43861 22.5880309,9.39266409 22.9864865,8.97220077 C23.3119691,8.62471042 23.6235521,8.5007722 24.0057915,8.56447876 C24.0289575,8.82857143 24.0602317,9.11467181 24.0915058,9.41235521 C24.2073359,10.4397683 24.3393822,11.7185328 24.1644788,12.5027027 C23.8644788,13.8555985 23.5969112,15.034749 23.3745174,15.769112 C23.3044654,15.9646247 23.3475113,16.1828163 23.486568,16.337075 C23.6256247,16.4913337 23.8381971,16.5567054 24.0399042,16.5072407 C24.2416113,16.457776 24.3998232,16.3014767 24.4517375,16.1003861 C24.6833977,15.3266409 24.9474903,14.1752896 25.2625483,12.7505792 C25.4490347,11.9119691 25.3656371,10.8011583 25.2625483,9.75868726 C25.3677303,9.72311566 25.4816906,9.72311566 25.5868726,9.75868726 C25.8301158,9.84208494 26.0814672,10.1559846 26.2945946,10.6447876 C26.8181467,11.8494208 26.8111969,11.9027027 26.7196911,12.5525097 C26.7046332,12.6567568 26.6837838,12.7760618 26.6559846,12.9185328 C26.5795367,13.3019305 26.5123552,13.6749035 26.446332,14.0351351 C26.3202812,14.8090839 26.153251,15.5757989 25.9459459,16.3320463 C25.8718114,16.6253944 26.041823,16.9250997 26.3316503,17.0119858 C26.6214775,17.0988719 26.9283277,16.9421231 27.0277992,16.6563707 C27.2469744,15.860607 27.4232897,15.0536553 27.5559846,14.2389961 C27.6208494,13.8833977 27.6880309,13.5150579 27.7633205,13.13861 C27.7957529,12.9752896 27.8200772,12.8351351 27.8374517,12.7100386 C27.8467181,12.6382239 27.8559846,12.5722008 27.8640927,12.5073359 C27.9211887,12.5407561 27.9840551,12.5631522 28.0494208,12.5733591 C28.095781,12.5924592 28.1406876,12.6149125 28.1837838,12.6405405 C28.5173745,13.2660232 28.7096525,13.7837838 28.7861004,14.2621622 C28.9841699,15.5583012 28.5718147,16.8810811 27.8258687,19.1050193 Z" id="Path" fill="#FFFFFF"></path>
                        <path d="M1.77567568,1.40617761 C1.66930154,1.4072029 1.56491154,1.43509336 1.47220077,1.48725869 C1.27630821,1.59350213 1.15543673,1.79956348 1.15830116,2.02239382 L1.15830116,12.4030888 C1.14687889,13.8567932 1.44457644,15.2963227 2.03166023,16.6262548 C2.60793363,17.9199802 3.43463784,19.0868141 4.46409266,20.0594595 C5.51629588,21.0572163 6.74648994,21.8485324 8.09073359,22.392278 C8.13036513,22.4089459 8.17504028,22.4089459 8.21467181,22.392278 L8.23320463,22.3841699 C9.58366986,21.8437227 10.8205704,21.0543539 11.8795367,20.0571429 C12.9058575,19.0808847 13.7320704,17.9139574 14.3119691,16.6216216 C14.896879,15.2914023 15.1944828,13.8527206 15.1853282,12.3996139 L15.1853282,10.2671815 C15.1820976,9.79449734 14.935671,9.35679469 14.5332046,9.10888031 L2.09305019,1.4988417 C1.99810267,1.43866744 1.88808492,1.40654546 1.77567568,1.40617761 Z" id="Path" fill="#1371F0"></path>
                    </g>
                </g>
            </g>
        </g>
    </g>
</svg>