<?xml version="1.0" encoding="UTF-8"?>
<svg width="60px" height="63px" viewBox="0 0 60 63" version="1.1" xmlns="http://www.w3.org/2000/svg" xmlns:xlink="http://www.w3.org/1999/xlink">
    <title>F05EA446-C2D5-486C-BAFC-D050069CD225@1.00x</title>
    <g id="06_External-Pages" stroke="none" stroke-width="1" fill="none" fill-rule="evenodd">
        <g id="06.2_Freelancers-Site" transform="translate(-237.000000, -1621.000000)" fill="#FFFFFF" fill-rule="nonzero">
            <g id="2-ways" transform="translate(210.000000, 1349.000000)">
                <g id="Looing-for-" transform="translate(0.000000, 74.000000)">
                    <g id="Icons_get-paid-for-seliveravles" transform="translate(27.000000, 198.000000)">
                        <path d="M22.1874477,33.5472803 L7.21757322,33.5472803 C3.31453508,33.5528144 0.152265404,36.716207 0.148117155,40.6192469 L0.148117155,55.5891213 C0.152268159,59.4917534 3.31494114,62.6544264 7.21757322,62.6585774 L22.1874477,62.6585774 C26.0900798,62.6544264 29.2527528,59.4917534 29.2569038,55.5891213 L29.2569038,40.6192469 C29.2527555,36.716207 26.0904858,33.5528144 22.1874477,33.5472803 L22.1874477,33.5472803 Z M26.2343096,55.5891213 C26.2315407,57.8225871 24.4209148,59.6320899 22.1874477,59.6334728 L7.21757322,59.6334728 C4.98508647,59.6307064 3.17598816,57.8216081 3.17322176,55.5891213 L3.17322176,40.6192469 C3.17460471,38.3857798 4.98410743,36.5751538 7.21757322,36.5723849 L22.1874477,36.5723849 C24.4213209,36.5751513 26.2315432,38.3853736 26.2343096,40.6192469 L26.2343096,55.5891213 Z" id="Shape"></path>
                        <path d="M45.3288703,0.233472588 C37.2262291,0.233472588 30.6577406,6.80196131 30.6577406,14.9046025 C30.6577406,23.0072437 37.2262291,29.5757322 45.3288703,29.5757322 C53.4315115,29.5757322 60.0000002,23.0072437 60.0000002,14.9046025 C60.000666,11.0133728 58.455176,7.28132662 55.7036611,4.5298117 C52.9521462,1.77829677 49.2201,0.232806782 45.3288703,0.233472588 Z M45.3288703,26.5606697 C40.6131875,26.5606697 36.3618884,23.7198764 34.5575093,19.3630564 C32.7531302,15.0062364 33.7510488,9.99147751 37.0858991,6.65734528 C40.4207495,3.32321305 45.4357232,2.32637441 49.7921545,4.13169171 C54.1485858,5.937009 56.9884631,10.1889198 56.987448,14.9046025 C56.987448,17.9964187 55.7590568,20.9615654 53.5725772,23.1475742 C51.3860976,25.333583 48.4206864,26.5613354 45.3288703,26.5606697 Z" id="Shape"></path>
                        <path d="M56.8619247,36.6677824 L33.9564854,59.6334728 C33.4638941,60.1465707 33.3240675,60.9036693 33.600889,61.5588681 C33.8777105,62.2140669 34.5180253,62.6415558 35.2292887,62.6460251 L52.8150628,62.6460251 C56.7194155,62.6460251 59.8846423,59.4809218 59.8846423,55.576569 L59.8846423,37.9079498 C59.8930296,37.1875217 59.4609354,36.5348827 58.7943813,36.2613962 C58.1278273,35.9879097 57.3618659,36.1489877 56.8619247,36.6677824 Z M56.8619247,55.5891213 C56.8605388,57.823161 55.0491029,59.6334728 52.8150628,59.6334728 L40.5866109,59.6334728 C40.2391708,59.6323865 39.9264229,59.422603 39.7936103,59.1015475 C39.6607976,58.7804921 39.733944,58.4110737 39.9790795,58.1648536 L55.7949791,42.3916318 C55.9747268,42.2134521 56.2439085,42.1606737 56.4776323,42.2577843 C56.711356,42.3548949 56.8638789,42.5828885 56.8644351,42.8359833 L56.8619247,55.5891213 Z" id="Shape"></path>
                    </g>
                </g>
            </g>
        </g>
    </g>
</svg>