<?xml version="1.0" encoding="UTF-8"?>
<svg width="60px" height="60px" viewBox="0 0 60 60" version="1.1" xmlns="http://www.w3.org/2000/svg" xmlns:xlink="http://www.w3.org/1999/xlink">
    <title>51B97908-9A57-4A74-B586-64D9A3BD47B2@1.00x</title>
    <g id="06_External-Pages" stroke="none" stroke-width="1" fill="none" fill-rule="evenodd">
        <g id="06.2_Freelancers-Site" transform="translate(-635.000000, -1013.000000)">
            <g id="About" transform="translate(209.000000, 737.000000)">
                <g id="02" transform="translate(425.000000, 218.000000)">
                    <g id="4-–-folders" transform="translate(1.000000, 58.000000)">
                        <rect id="body" x="0" y="0" width="60" height="60"></rect>
                        <g id="icon" transform="translate(2.000000, 6.000000)" stroke-linecap="round" stroke-width="2">
                            <path d="M10,10 L53,10 C54.6568542,10 56,11.3431458 56,13 L56,38 L56,38" id="Path-972" stroke="#4DD09A"></path>
                            <path d="M30,46 L3,46 C1.34314575,46 2.02906125e-16,44.6568542 0,43 L0,3 C-2.02906125e-16,1.34314575 1.34314575,3.04359188e-16 3,0 L26.5119387,0 C27.3951551,-1.62244228e-16 28.1738009,0.579336306 28.4275913,1.42530423 L31,10 L31,10" id="Path-973" stroke="#193875"></path>
                            <g id="dop" transform="translate(28.000000, 24.000000)">
                                <circle id="Oval-2" stroke="#4DD09A" cx="14" cy="14" r="14"></circle>
                                <path d="M10,15 L12.9225695,17.9225695 C12.9616219,17.9616219 13.0249384,17.9616219 13.0639908,17.9225695 C13.0661281,17.9204322 13.0681673,17.9181992 13.0701023,17.9158772 L18,12 L18,12" id="Path-4" stroke="#193875"></path>
                            </g>
                        </g>
                    </g>
                </g>
            </g>
        </g>
    </g>
</svg>