<?xml version="1.0" encoding="UTF-8"?>
<svg width="70px" height="70px" viewBox="0 0 70 70" version="1.1" xmlns="http://www.w3.org/2000/svg" xmlns:xlink="http://www.w3.org/1999/xlink">
    <title>3FD87AE5-9874-4EFA-9DC9-5B61CE5A82C1@1.00x</title>
    <g id="06_External-Pages" stroke="none" stroke-width="1" fill="none" fill-rule="evenodd">
        <g id="06.1_Freelancers-Site" transform="translate(-634.000000, -1262.000000)">
            <g id="Your-Talent" transform="translate(209.000000, 1099.000000)">
                <g id="02" transform="translate(425.000000, 130.000000)">
                    <g id="23-–-business-office" transform="translate(0.000000, 33.000000)">
                        <rect id="body" x="0" y="0" width="70" height="70"></rect>
                        <g id="icon" transform="translate(3.333333, 4.666667)" stroke-linecap="round" stroke-width="2">
                            <path d="M39.3476355,22.5213423 C36.6139655,19.7876723 36.6139655,15.3555174 39.3476355,12.6218474 C42.0813056,9.88817736 46.5134604,9.88817736 49.2471305,12.6218474 C51.9808005,15.3555174 51.9808005,19.7876723 49.2471305,22.5213423 C46.5134604,25.2550124 42.0813056,25.2550124 39.3476355,22.5213423 Z" id="Oval" stroke="#4DD09A"></path>
                            <path d="M13,24.5 L37.5,49 L13,24.5 Z" id="Path-915" stroke="#4DD09A"></path>
                            <line x1="2.11985572" y1="59.7491066" x2="11.8333333" y2="50.1666667" id="Path-917" stroke="#4DD09A"></line>
                            <line x1="1.33333333" y1="46.6666667" x2="4.83333333" y2="43.1666667" id="Path-917-Copy" stroke="#193875"></line>
                            <line x1="15.3333333" y1="60.6666667" x2="18.8333333" y2="57.1666667" id="Path-917-Copy-2" stroke="#193875"></line>
                            <path d="M36.3333333,49 L61.1213203,24.212013 C61.6839295,23.6494039 62,22.8863421 62,22.0906926 L62,3 C62,1.34314575 60.6568542,4.11038738e-15 59,0 L39.9093074,0 C39.1136579,-3.30614526e-15 38.3505961,0.316070521 37.787987,0.878679656 L13,25.6666667 L13,25.6666667 L2.54044011,25.6666667 C2.26429774,25.6666667 2.04044011,25.8905243 2.04044011,26.1666667 C2.04044011,26.2992749 2.09311853,26.4264519 2.18688672,26.5202201 L35.4797799,59.8131133 C35.6750421,60.0083754 35.9916246,60.0083754 36.1868867,59.8131133 C36.2806549,59.7193451 36.3333333,59.5921681 36.3333333,59.4595599 L36.3333333,49 L36.3333333,49 Z" id="Path-253" stroke="#193875"></path>
                        </g>
                    </g>
                </g>
            </g>
        </g>
    </g>
</svg>