<svg id="Layer_1" enable-background="new 0 0 511.004 511.004" height="512" viewBox="0 0 511.004 511.004" width="512" xmlns="http://www.w3.org/2000/svg">
<style>
.fill {fill: #ffffff}
</style>
<path class="fill" d="m506.47 244.552-73.14-73.139c-6.047-6.049-15.854-6.049-21.9 0-6.048 6.048-6.048 15.854 0 21.9l46.702 46.702h-187.144v-187.143l46.702 46.702c3.023 3.024 6.986 4.536 10.95 4.536 13.671 0 20.735-16.652 10.95-26.437l-73.139-73.14c-6.045-6.045-15.853-6.047-21.9 0l-73.139 73.14c-6.048 6.048-6.048 15.853 0 21.9 6.047 6.049 15.854 6.049 21.9 0l46.702-46.702v187.144h-187.142l46.702-46.702c6.048-6.047 6.048-15.853 0-21.9-6.045-6.048-15.852-6.05-21.9 0l-73.14 73.139c-6.045 6.045-6.047 15.853 0 21.9l73.14 73.139c6.045 6.047 15.853 6.049 21.9 0 6.048-6.048 6.048-15.854 0-21.9l-46.702-46.702h187.144v187.144l-46.702-46.702c-6.046-6.048-15.853-6.049-21.9 0-6.048 6.048-6.048 15.853 0 21.9l73.139 73.14c6.045 6.045 15.853 6.047 21.9 0l73.139-73.14c6.048-6.048 6.048-15.853 0-21.9-6.047-6.049-15.854-6.049-21.9 0l-46.702 46.702v-187.145h187.144l-46.702 46.702c-6.048 6.047-6.048 15.853 0 21.9 6.046 6.048 15.854 6.049 21.9 0l73.14-73.139c6.043-6.043 6.045-15.852-.002-21.899z"/></svg>