<?xml version="1.0" encoding="UTF-8"?>
<svg width="70px" height="70px" viewBox="0 0 70 70" version="1.1" xmlns="http://www.w3.org/2000/svg" xmlns:xlink="http://www.w3.org/1999/xlink">
    <title>81ABB31F-3731-4EF4-B930-2D268B634521@1.00x</title>
    <g id="06_External-Pages" stroke="none" stroke-width="1" fill="none" fill-rule="evenodd">
        <g id="06.1_Freelancers-Site" transform="translate(-241.000000, -1262.000000)">
            <g id="Your-Talent" transform="translate(209.000000, 1099.000000)">
                <g id="01" transform="translate(32.000000, 130.000000)">
                    <g id="35-–-internet" transform="translate(0.000000, 33.000000)">
                        <rect id="body" x="0" y="0" width="70" height="70"></rect>
                        <g id="icon" transform="translate(4.666667, 2.333333)" stroke-linecap="round" stroke-width="2">
                            <path d="M49,32.6666667 L51.2341937,8.09053575 C51.2841952,7.54051912 50.8788529,7.05410831 50.3288363,7.00410679 C50.2987352,7.00137034 50.2685257,7 50.2383005,7 L10.4227144,7 C9.87042962,7 9.42271437,7.44771525 9.42271437,8 C9.42271437,8.02850611 9.42393326,8.05699918 9.42636772,8.08540114 L12.7376092,46.7165522 C12.7970743,47.4103113 13.2130831,48.0232082 13.8358753,48.3346043 L23.3333333,53.0833333 L23.3333333,53.0833333" id="Path-336" stroke="#193875"></path>
                            <path d="M56,35 L60.2138012,3.39649116 C60.4327772,1.754171 59.2789288,0.245292319 57.6366086,0.026316298 C57.5051717,0.00879137905 57.3727175,3.08426623e-15 57.2401175,0 L3.41671657,0 C1.75986232,3.04359188e-16 0.416716566,1.34314575 0.416716566,3 C0.416716566,3.12974801 0.425133831,3.25935937 0.441915333,3.38801755 L6.65612005,51.0302537 C6.87112007,52.6785872 7.8912513,54.1122923 9.37805413,54.8556937 L29.4389061,64.8861197 C30.0019611,65.1676472 30.6647055,65.1676472 31.2277605,64.8861197 L35,63 L35,63" id="Path-590" stroke="#4DD09A"></path>
                            <g id="dop" transform="translate(30.333333, 32.666667)">
                                <circle id="Oval-2" stroke="#193875" cx="16.3333333" cy="16.3333333" r="16.3333333"></circle>
                                <path d="M11.6666667,17.5 L15.0892362,20.9225695 C15.1282886,20.9616219 15.1916051,20.9616219 15.2306575,20.9225695 C15.2327947,20.9204322 15.234834,20.9181992 15.236769,20.9158772 L21,14 L21,14" id="Path-4" stroke="#4DD09A"></path>
                            </g>
                        </g>
                    </g>
                </g>
            </g>
        </g>
    </g>
</svg>